<?xml version="1.0" encoding="utf-8"?>
<!-- Generator: Adobe Illustrator 25.0.1, SVG Export Plug-In . SVG Version: 6.00 Build 0)  -->
<svg version="1.1" baseProfile="tiny" id="Layer_1" xmlns="http://www.w3.org/2000/svg" xmlns:xlink="http://www.w3.org/1999/xlink"
	 x="0px" y="0px" viewBox="0 0 100 60" overflow="visible" xml:space="preserve">
<g id="Card_Shape">
	<path fill="#FFFFFF" d="M3.2,59.2c-1.4,0-2.5-1.1-2.5-2.5V3.2c0-1.4,1.1-2.5,2.5-2.5h93.6c1.4,0,2.5,1.1,2.5,2.5v53.5
		c0,1.4-1.1,2.5-2.5,2.5H3.2z"/>
	<path fill="#004A97" d="M96.8,1.5c0.9,0,1.7,0.8,1.7,1.7v53.5c0,0.9-0.8,1.7-1.7,1.7H3.2c-0.9,0-1.7-0.8-1.7-1.7V3.2
		c0-0.9,0.8-1.7,1.7-1.7H96.8 M96.8,0H3.2C1.4,0,0,1.4,0,3.2v53.5c0,1.8,1.4,3.2,3.2,3.2h93.6c1.8,0,3.2-1.4,3.2-3.2V3.2
		C100,1.4,98.5,0,96.8,0L96.8,0z"/>
</g>
<g>
	<g>
		<path fill="#231F20" d="M17.6,43.6c0,1.1,0.8,1.3,1.6,1.3c3.2,0,4.3-2.4,4.3-4.6c0-2.8-1.8-4.8-4.7-4.8c-0.6,0-0.9,0-1.2,0.1V43.6
			z M16.2,36.6c0-1.3-0.7-1.3-1.4-1.3V35c0.6,0,1.2,0,1.8,0c0.6,0,1.5,0,2.6,0c3.9,0,6,2.6,6,5.2c0,1.5-0.9,5.2-6.1,5.2
			c-0.8,0-1.5,0-2.2,0c-0.7,0-1.3,0-2,0V45c0.9-0.1,1.3-0.1,1.4-1.1L16.2,36.6L16.2,36.6z"/>
		<path fill="#231F20" d="M27.2,36.3c-0.4,0-0.7-0.4-0.7-0.7c0-0.4,0.4-0.7,0.7-0.7c0.4,0,0.7,0.3,0.7,0.7
			C27.9,35.9,27.6,36.3,27.2,36.3 M25.6,45h0.3c0.4,0,0.7,0,0.7-0.5v-4c0-0.7-0.2-0.7-0.8-1v-0.2c0.7-0.2,1.5-0.5,1.6-0.5
			c0.1-0.1,0.2-0.1,0.3-0.1c0.1,0,0.1,0.1,0.1,0.2v5.7c0,0.5,0.3,0.5,0.7,0.5h0.3v0.4c-0.5,0-1,0-1.6,0c-0.5,0-1.1,0-1.6,0V45z"/>
		<path fill="#231F20" d="M30.2,40.5c0-0.6-0.2-0.7-0.9-1v-0.3c0.6-0.2,1.3-0.4,2-0.7c0,0,0.1,0,0.1,0.1v1c0.9-0.6,1.6-1.1,2.6-1.1
			c1.3,0,1.7,0.9,1.7,2.1v3.8c0,0.5,0.3,0.5,0.7,0.5h0.3v0.4c-0.5,0-1,0-1.6,0c-0.5,0-1.1,0-1.6,0V45h0.3c0.4,0,0.7,0,0.7-0.5v-3.9
			c0-0.9-0.5-1.3-1.4-1.3c-0.5,0-1.2,0.4-1.7,0.7v4.4c0,0.5,0.3,0.5,0.7,0.5h0.3v0.4c-0.5,0-1,0-1.6,0c-0.5,0-1.1,0-1.6,0V45h0.3
			c0.4,0,0.7,0,0.7-0.5L30.2,40.5L30.2,40.5z"/>
		<path fill="#231F20" d="M40.5,40.8c0.4,0,0.4-0.2,0.4-0.4c0-0.8-0.5-1.4-1.3-1.4c-0.9,0-1.5,0.7-1.7,1.7L40.5,40.8L40.5,40.8z
			 M37.8,41.2c0,0.1,0,0.4,0,0.9c0.1,1.4,1,2.6,2.2,2.6c0.8,0,1.5-0.4,2-1l0.2,0.2c-0.7,0.9-1.5,1.7-2.8,1.7c-2.4,0-2.8-2.3-2.8-3.2
			c0-2.9,2-3.8,3-3.8c1.2,0,2.5,0.8,2.5,2.3c0,0.1,0,0.2,0,0.3L42,41.2L37.8,41.2L37.8,41.2z"/>
		<path fill="#231F20" d="M42.5,45h0.4c0.4,0,0.7,0,0.7-0.5v-4.2c0-0.5-0.6-0.6-0.8-0.7v-0.2c1.1-0.5,1.7-0.8,1.8-0.8
			c0.1,0,0.1,0,0.1,0.2v1.3h0c0.4-0.6,1-1.5,1.9-1.5c0.4,0,0.8,0.3,0.8,0.8c0,0.4-0.3,0.8-0.7,0.8c-0.5,0-0.5-0.4-1-0.4
			c-0.3,0-1.1,0.3-1.1,1.2v3.5c0,0.5,0.3,0.5,0.7,0.5h0.8v0.4c-0.8,0-1.4,0-2.1,0c-0.6,0-1.2,0-1.8,0L42.5,45L42.5,45z"/>
		<path fill="#231F20" d="M48.3,43.3c0.2,1,0.8,1.8,1.9,1.8c0.9,0,1.2-0.5,1.2-1.1c0-1.8-3.2-1.2-3.2-3.6c0-0.8,0.7-1.9,2.3-1.9
			c0.5,0,1.1,0.1,1.7,0.4l0.1,1.5h-0.3c-0.1-0.9-0.7-1.5-1.6-1.5c-0.6,0-1.2,0.3-1.2,1c0,1.7,3.5,1.2,3.5,3.5c0,1-0.8,2-2.6,2
			c-0.6,0-1.3-0.2-1.8-0.5L48,43.4L48.3,43.3z"/>
		<path fill="#231F20" d="M66,37.7h-0.4c-0.3-1.7-1.5-2.4-3.2-2.4c-1.7,0-4.2,1.1-4.2,4.7c0,3,2.1,5.2,4.4,5.2c1.5,0,2.7-1,3-2.6
			l0.3,0.1l-0.3,2.2c-0.6,0.4-2.3,0.8-3.3,0.8c-3.5,0-5.7-2.3-5.7-5.6c0-3.1,2.7-5.2,5.6-5.2c1.2,0,2.4,0.4,3.5,0.8L66,37.7z"/>
		<path fill="#231F20" d="M66.5,45h0.3c0.4,0,0.7,0,0.7-0.5v-8.3c0-1-0.2-1-0.8-1.2v-0.2c0.6-0.2,1.2-0.5,1.5-0.6
			c0.2-0.1,0.3-0.2,0.3-0.2c0.1,0,0.1,0.1,0.1,0.2v10.3c0,0.5,0.3,0.5,0.7,0.5h0.3v0.4c-0.5,0-1,0-1.6,0c-0.5,0-1.1,0-1.6,0L66.5,45
			L66.5,45z"/>
		<path fill="#231F20" d="M76.1,44.5c0,0.3,0.2,0.3,0.4,0.3c0.2,0,0.4,0,0.6,0v0.3c-0.6,0.1-1.9,0.4-2.1,0.5l-0.1,0v-1.2
			c-0.9,0.7-1.6,1.3-2.6,1.3c-0.8,0-1.6-0.5-1.6-1.8V40c0-0.4-0.1-0.8-0.9-0.8v-0.3c0.5,0,1.7-0.1,1.9-0.1c0.2,0,0.2,0.1,0.2,0.4
			v3.8c0,0.4,0,1.7,1.3,1.7c0.5,0,1.2-0.4,1.8-0.9v-4c0-0.3-0.7-0.5-1.3-0.6V39c1.3-0.1,2.2-0.2,2.3-0.2c0.1,0,0.1,0.1,0.1,0.3
			L76.1,44.5L76.1,44.5z"/>
		<path fill="#231F20" d="M79.1,43.7c0,0.6,0.5,1.5,1.5,1.5c1.6,0,2.3-1.6,2.3-2.9c0-1.6-1.2-2.9-2.4-2.9c-0.6,0-1,0.4-1.4,0.7V43.7
			z M79.1,39.6c0.6-0.5,1.4-1.1,2.2-1.1c1.7,0,2.8,1.5,2.8,3.1c0,2-1.4,3.9-3.6,3.9c-1.1,0-1.7-0.4-2.1-0.5L78,45.4l-0.3-0.2
			c0.1-0.9,0.2-1.7,0.2-2.7v-6.4c0-1-0.2-1-0.8-1.2v-0.2c0.6-0.2,1.2-0.5,1.5-0.6c0.2-0.1,0.3-0.2,0.3-0.2c0.1,0,0.1,0.1,0.1,0.2
			L79.1,39.6L79.1,39.6z"/>
		<path fill="#231F20" d="M14.8,54h0.1c0.3,0,0.6,0,0.6-0.5v-4.2c0-0.4-0.3-0.5-0.6-0.5h-0.1v-0.2c0.3,0,0.8,0,1.2,0
			c0.4,0,0.9,0,1.3,0v0.2h-0.1c-0.3,0-0.6,0-0.6,0.5v4.2c0,0.4,0.3,0.5,0.6,0.5h0.1v0.2c-0.4,0-0.9,0-1.3,0c-0.4,0-0.9,0-1.2,0V54z"
			/>
		<path fill="#231F20" d="M17.2,54.2l0-0.2h-0.1c-0.3,0-0.6-0.1-0.6-0.5v-4.2c0-0.4,0.3-0.5,0.6-0.5h0.1v-0.2c-0.4,0-0.8,0-1.2,0
			c-0.4,0-0.9,0-1.2,0v0.2h0.1c0.3,0,0.6,0.1,0.6,0.5v4.2c0,0.4-0.3,0.5-0.6,0.5h-0.1v0.2c0.3,0,0.8,0,1.2,0
			C16.4,54.2,16.8,54.2,17.2,54.2 M17.3,54.3c-0.4,0-0.9,0-1.3,0c-0.4,0-0.9,0-1.2,0h0v0V54v0h0h0.1c0.3,0,0.6,0,0.6-0.4v-4.2
			c0-0.4-0.3-0.4-0.6-0.4h-0.1v0v-0.3h0c0.3,0,0.8,0,1.2,0c0.4,0,0.9,0,1.3,0h0v0v0.3h0h-0.1c-0.3,0-0.6,0-0.6,0.4v4.2
			c0,0.4,0.3,0.4,0.6,0.4h0.1v0L17.3,54.3L17.3,54.3z"/>
		<path fill="#231F20" d="M22.8,52.7L22.8,52.7l0-3.1c0-0.7-0.5-0.8-0.7-0.8H22v-0.2c0.4,0,0.8,0,1.1,0c0.3,0,0.7,0,1,0v0.2H24
			c-0.3,0-0.7,0.1-0.7,1v3.7c0,0.3,0,0.6,0,0.8H23l-4.2-4.7v3.3c0,0.7,0.1,0.9,0.8,0.9h0.1v0.2c-0.3,0-0.7,0-1,0c-0.4,0-0.7,0-1.1,0
			V54h0.1c0.6,0,0.7-0.4,0.7-1v-3.4c0-0.5-0.4-0.7-0.7-0.7h-0.1v-0.2c0.3,0,0.6,0,0.9,0c0.2,0,0.5,0,0.7,0L22.8,52.7z"/>
		<path fill="#231F20" d="M22.8,52.7L22.8,52.7L22.8,52.7L22.8,52.7z M22.8,52.7L22.8,52.7L22.8,52.7z M23,54.4h0.3
			c0-0.2,0-0.5,0-0.8v-3.7c0-1,0.4-1.1,0.8-1.1h0.1v-0.2c-0.3,0-0.6,0-1,0c-0.4,0-0.7,0-1.1,0l0,0.2h0.1c0.2,0,0.7,0.1,0.7,0.8
			l0,3.1l0,0l0,0l-3.6-4.1c-0.2,0-0.5,0-0.7,0c-0.3,0-0.6,0-0.9,0l0,0.2h0.1c0.4,0,0.8,0.3,0.8,0.8V53c0,0.6-0.2,1.1-0.8,1.1l-0.1,0
			v0.2c0.4,0,0.7,0,1.1,0c0.3,0,0.7,0,1,0v-0.2h-0.1c-0.6,0-0.8-0.3-0.8-1v-3.4L23,54.4z M23.3,54.4l-0.3,0l-4.1-4.6v3.3
			c0,0.7,0.1,0.9,0.7,0.9h0.2v0v0.3h0c-0.4,0-0.7,0-1,0c-0.4,0-0.7,0-1.1,0h0v0V54h0h0.1c0.5,0,0.7-0.3,0.7-1v-3.4
			c0-0.4-0.4-0.7-0.7-0.7h-0.1v0v-0.3h0c0.3,0,0.6,0,0.9,0c0.2,0,0.5,0,0.7,0l3.6,4v-3c0-0.6-0.4-0.7-0.7-0.7h-0.2v0v-0.3h0
			c0.4,0,0.8,0,1.1,0c0.3,0,0.7,0,1,0h0v0v0.3h0H24c-0.3,0-0.7,0-0.7,1v3.7C23.3,53.9,23.3,54.1,23.3,54.4L23.3,54.4L23.3,54.4
			L23.3,54.4z"/>
		<path fill="#231F20" d="M25.3,49c-0.6,0-0.6,0.1-0.8,0.7h-0.2c0-0.2,0.1-0.5,0.1-0.7c0-0.2,0-0.5,0-0.7h0.2
			c0.1,0.2,0.3,0.2,0.5,0.2h4.2c0.2,0,0.4,0,0.4-0.3l0.2,0c0,0.2-0.1,0.4-0.1,0.7c0,0.2,0,0.4,0,0.7l-0.2,0.1c0-0.3-0.1-0.8-0.6-0.8
			h-1.3v4.3c0,0.6,0.3,0.7,0.7,0.7h0.2v0.2c-0.3,0-0.9,0-1.3,0c-0.5,0-1.1,0-1.4,0V54H26c0.4,0,0.7,0,0.7-0.7V49L25.3,49L25.3,49z"
			/>
		<path fill="#231F20" d="M28.5,54.3c-0.3,0-0.9,0-1.3,0c-0.5,0-1.1,0-1.4,0h0v0V54h0H26c0.4,0,0.6,0,0.6-0.6v-4.3h-1.3v0v0h1.4v4.4
			c0,0.7-0.3,0.7-0.7,0.7h-0.1v0.2c0.3,0,0.9,0,1.3,0C27.6,54.2,28.1,54.2,28.5,54.3l0-0.2h-0.1c-0.4,0-0.7-0.1-0.7-0.7V49H29
			c0.5,0,0.6,0.5,0.6,0.8l0.2-0.1c0-0.2,0-0.4,0-0.6c0-0.2,0.1-0.4,0.1-0.6l-0.1,0c0,0.2-0.3,0.2-0.5,0.2h-4.2h0
			c-0.2,0-0.4,0-0.5-0.2h-0.1c0,0.2,0,0.4,0,0.7c0,0.2-0.1,0.4-0.1,0.7h0.2c0.1-0.6,0.2-0.7,0.8-0.7v0v0c-0.6,0-0.6,0.1-0.7,0.7l0,0
			h0h-0.3l0,0c0-0.2,0.1-0.5,0.1-0.7c0-0.2,0-0.4,0-0.7v0h0h0.2l0,0c0.1,0.2,0.2,0.2,0.4,0.2h0h4.2c0.2,0,0.4,0,0.4-0.2l0,0l0,0
			l0.2,0l0,0c0,0.2-0.1,0.4-0.1,0.7c0,0.2,0,0.4,0,0.7v0l0,0l-0.3,0.1l0,0c0-0.3-0.1-0.7-0.6-0.7h-1.3v4.3c0,0.6,0.3,0.7,0.6,0.7
			h0.2v0L28.5,54.3L28.5,54.3L28.5,54.3z"/>
		<path fill="#231F20" d="M30.2,54h0.1c0.3,0,0.6,0,0.6-0.5v-4.2c0-0.4-0.3-0.5-0.6-0.5h-0.1v-0.2c0.5,0,1.3,0,2,0
			c0.7,0,1.5,0,2.1,0c0,0.3,0,0.9,0,1.2l-0.2,0.1c0-0.5-0.1-0.9-1-0.9H32v2.1h1c0.5,0,0.6-0.3,0.6-0.7h0.2c0,0.3,0,0.6,0,0.9
			c0,0.3,0,0.6,0,0.9l-0.2,0c0-0.5-0.1-0.8-0.6-0.8h-1v1.9c0,0.5,0.5,0.5,1,0.5c1,0,1.4-0.1,1.6-1l0.2,0.1c-0.1,0.4-0.2,0.9-0.3,1.3
			c-0.5,0-1.5,0-2.2,0c-0.7,0-1.7,0-2.2,0L30.2,54L30.2,54z"/>
		<path fill="#231F20" d="M34.5,54.2c0.1-0.4,0.2-0.8,0.3-1.2l-0.2,0c-0.2,0.9-0.7,1-1.7,1c-0.5,0-1,0-1-0.6v-1.9h1
			c0.6,0,0.6,0.3,0.7,0.8l0.2,0c0-0.3,0-0.6,0-0.9c0-0.3,0-0.6,0-0.9h-0.2c0,0.4-0.2,0.7-0.7,0.7h-1v-2.2h1.2c0.8,0,1,0.4,1,0.9
			l0.2,0c0-0.2,0-0.5,0-0.8c0-0.1,0-0.3,0-0.4c-0.6,0-1.4,0-2,0c-0.7,0-1.5,0-2,0v0.2h0.1c0.3,0,0.6,0.1,0.6,0.5v4.2
			c0,0.4-0.3,0.5-0.6,0.5h-0.1v0.2c0.5,0,1.4,0,2.1,0C33.1,54.2,34,54.2,34.5,54.2 M34.5,54.3c-0.5,0-1.5,0-2.2,0
			c-0.7,0-1.7,0-2.2,0h0v0V54v0h0h0.1c0.3,0,0.6,0,0.6-0.4v-4.2c0-0.4-0.3-0.4-0.6-0.4h-0.1v0v-0.3h0c0.5,0,1.3,0,2,0
			c0.7,0,1.5,0,2.1,0h0l0,0c0,0.1,0,0.3,0,0.4c0,0.3,0,0.6,0,0.8l0,0l0,0L34,50l0,0c0-0.5-0.1-0.9-1-0.9H32l0,2.1h0.9
			c0.5,0,0.6-0.2,0.6-0.7l0,0h0h0.3l0,0c0,0.3,0,0.6,0,0.9c0,0.3,0,0.6,0,0.9l0,0l0,0l-0.3,0.1l0,0c-0.1-0.5-0.1-0.8-0.6-0.8H32v1.9
			c0,0.5,0.4,0.5,1,0.5c1,0,1.4-0.1,1.6-1l0,0l0,0l0.3,0.1l0,0C34.7,53.4,34.7,53.8,34.5,54.3L34.5,54.3L34.5,54.3L34.5,54.3z"/>
		<path fill="#231F20" d="M37,51.3h0.4c0.8,0,1.2-0.3,1.2-1.3c0-0.7-0.5-1.2-1.2-1.2c-0.2,0-0.3,0-0.5,0V51.3z M35.9,49.5
			c0-0.6-0.3-0.6-0.6-0.6h-0.1v-0.2c0.3,0,0.8,0,1.3,0c0.5,0,0.9,0,1.3,0c1,0,1.9,0.3,1.9,1.4c0,0.7-0.5,1.2-1.1,1.4l1.4,2.1
			c0.2,0.3,0.4,0.4,0.8,0.5v0.2c-0.3,0-0.5,0-0.8,0c-0.3,0-0.5,0-0.8,0c-0.6-0.8-1.2-1.7-1.7-2.6H37v1.7c0,0.6,0.3,0.6,0.7,0.6h0.1
			v0.2c-0.5,0-0.9,0-1.4,0c-0.4,0-0.8,0-1.2,0V54h0.1c0.3,0,0.6-0.1,0.6-0.4L35.9,49.5L35.9,49.5z"/>
		<path fill="#231F20" d="M37.3,51.3c0.8,0,1.2-0.3,1.2-1.2c0-0.7-0.4-1.1-1.2-1.2c-0.2,0-0.3,0-0.4,0v2.3H37.3z M37,51.4L37,51.4
			l0-2.5l0,0c0.1,0,0.2,0,0.5,0c0.7,0,1.2,0.5,1.2,1.2c0,1-0.5,1.3-1.3,1.3L37,51.4L37,51.4z M37,51.6h0.6l0,0
			c0.5,0.9,1.1,1.8,1.7,2.6c0.2,0,0.5,0,0.8,0c0.3,0,0.5,0,0.8,0v-0.2c-0.4,0-0.6-0.2-0.8-0.5l-1.4-2.1l0,0c0.6-0.3,1.1-0.7,1.1-1.4
			c0-1.1-0.9-1.4-1.9-1.4c-0.4,0-0.8,0-1.3,0c-0.5,0-1,0-1.2,0v0.2h0.1c0.3,0,0.6,0,0.6,0.7v4.1c0,0.3-0.3,0.5-0.6,0.5h-0.1v0.2
			c0.4,0,0.8,0,1.1,0c0.5,0,0.9,0,1.4,0v-0.2h-0.1c-0.4,0-0.7,0-0.7-0.7L37,51.6L37,51.6L37,51.6z M40.7,54.3c-0.3,0-0.5,0-0.8,0
			c-0.2,0-0.5,0-0.8,0c-0.6-0.8-1.2-1.7-1.7-2.6H37v1.7c0,0.6,0.3,0.6,0.6,0.6h0.2v0v0.3h0c-0.5,0-0.9,0-1.4,0c-0.4,0-0.8,0-1.2,0h0
			v0V54h0h0.1c0.3,0,0.5-0.1,0.5-0.4v-4.1c0-0.6-0.3-0.6-0.5-0.6h-0.2v0v-0.3h0c0.3,0,0.8,0,1.3,0c0.5,0,0.9,0,1.3,0
			c1,0,2,0.3,2,1.5c0,0.7-0.5,1.2-1.1,1.4l1.4,2c0.2,0.3,0.4,0.4,0.8,0.5l0,0v0L40.7,54.3L40.7,54.3L40.7,54.3z"/>
		<path fill="#231F20" d="M46.2,52.7L46.2,52.7l0-3.1c0-0.7-0.5-0.8-0.7-0.8h-0.2v-0.2c0.4,0,0.8,0,1.1,0c0.3,0,0.7,0,1,0v0.2h-0.1
			c-0.3,0-0.7,0.1-0.7,1v3.7c0,0.3,0,0.6,0,0.8h-0.3l-4.2-4.7v3.3c0,0.7,0.1,0.9,0.8,0.9h0.1v0.2c-0.3,0-0.7,0-1,0
			c-0.4,0-0.7,0-1.1,0V54h0.1c0.6,0,0.7-0.4,0.7-1v-3.4c0-0.5-0.4-0.7-0.7-0.7H41v-0.2c0.3,0,0.6,0,0.9,0c0.2,0,0.5,0,0.7,0
			L46.2,52.7z"/>
		<path fill="#231F20" d="M46.2,52.7L46.2,52.7L46.2,52.7L46.2,52.7z M46.2,52.7L46.2,52.7L46.2,52.7z M46.4,54.4h0.3
			c0-0.2,0-0.5,0-0.8v-3.7c0-1,0.4-1.1,0.8-1.1h0.1v-0.2c-0.3,0-0.6,0-1,0c-0.4,0-0.7,0-1.1,0v0.2h0.1c0.2,0,0.7,0.1,0.7,0.8l0,3.1
			l0,0l0,0l-3.6-4.1c-0.2,0-0.5,0-0.7,0c-0.3,0-0.6,0-0.9,0v0.2h0.1c0.4,0,0.8,0.3,0.8,0.8V53c0,0.7-0.2,1.1-0.8,1.1l-0.1,0v0.2
			c0.4,0,0.7,0,1.1,0c0.3,0,0.7,0,1,0v-0.2H43c-0.6,0-0.8-0.3-0.8-1v-3.4L46.4,54.4z M46.7,54.4l-0.3,0l-4.1-4.6v3.2
			c0,0.7,0.1,0.9,0.7,0.9h0.2v0v0.3h0c-0.4,0-0.7,0-1,0c-0.4,0-0.7,0-1.1,0h0v0V54h0h0.1c0.5,0,0.7-0.3,0.7-1v-3.4
			c0-0.4-0.4-0.7-0.7-0.7h-0.1v0v-0.3h0c0.3,0,0.6,0,0.9,0c0.2,0,0.5,0,0.7,0l3.6,4v-3c0-0.6-0.4-0.7-0.7-0.7h-0.2v0v-0.3h0
			c0.4,0,0.8,0,1.1,0c0.3,0,0.7,0,1,0h0v0v0.3h0h-0.1c-0.3,0-0.7,0-0.7,1v3.7C46.7,53.9,46.7,54.1,46.7,54.4L46.7,54.4L46.7,54.4
			L46.7,54.4z"/>
		<path fill="#231F20" d="M50,49.5L50,49.5l-0.8,2.3h1.5L50,49.5z M48.8,53.1c-0.1,0.3-0.2,0.5-0.2,0.6c0,0.2,0.3,0.3,0.6,0.3h0.1
			v0.2c-0.3,0-0.7,0-1,0c-0.3,0-0.6,0-0.9,0V54h0c0.3,0,0.6-0.2,0.7-0.5l1.3-3.7c0.1-0.3,0.3-0.7,0.3-1c0.3-0.1,0.6-0.3,0.7-0.3
			c0,0,0,0,0.1,0c0,0,0,0,0.1,0c0,0.1,0,0.1,0.1,0.2l1.5,4.2c0.1,0.3,0.2,0.6,0.3,0.8c0.1,0.2,0.3,0.3,0.5,0.3h0v0.2
			c-0.4,0-0.7,0-1.1,0c-0.4,0-0.8,0-1.2,0V54h0.1c0.2,0,0.5,0,0.5-0.2c0-0.1-0.1-0.3-0.2-0.6l-0.3-0.9h-1.8L48.8,53.1z"/>
		<path fill="#231F20" d="M50,49.5L50,49.5L50,49.5z M49.3,51.8h1.4L50,49.6L49.3,51.8z M49.2,51.8l0.8-2.4h0h0v0l0,0l0,0v0h0
			l0.8,2.4H49.2z M50.8,54.2c0.4,0,0.8,0,1.2,0c0.4,0,0.7,0,1.1,0v-0.2h0c-0.3,0-0.5-0.1-0.6-0.3c-0.1-0.2-0.2-0.5-0.3-0.8l-1.5-4.2
			c0-0.1,0-0.1-0.1-0.2c0,0,0,0,0,0h0c0,0,0,0,0,0c-0.2,0.1-0.5,0.3-0.7,0.3c0,0.3-0.2,0.7-0.3,1l-1.3,3.7c-0.1,0.4-0.4,0.6-0.7,0.6
			h0v0.2c0.3,0,0.6,0,0.8,0c0.3,0,0.6,0,0.9,0v-0.2h-0.1c-0.3,0-0.6,0-0.6-0.3c0-0.2,0.1-0.4,0.2-0.6l0,0l0,0l0.3-0.9h1.9l0.3,1
			c0.1,0.3,0.2,0.5,0.2,0.6c0,0.2-0.4,0.3-0.5,0.3h-0.1L50.8,54.2L50.8,54.2z M53.1,54.3c-0.4,0-0.7,0-1.1,0c-0.4,0-0.8,0-1.2,0l0,0
			v0V54h0h0.1c0.2,0,0.5,0,0.5-0.2c0-0.1-0.1-0.3-0.2-0.6l-0.3-0.9h-1.8l-0.3,0.8c-0.1,0.3-0.2,0.5-0.2,0.6c0,0.2,0.3,0.2,0.6,0.2
			h0.1v0v0.3l0,0c-0.3,0-0.7,0-1,0c-0.3,0-0.6,0-0.9,0l0,0v0V54h0h0c0.3,0,0.6-0.2,0.7-0.5l1.3-3.7c0.1-0.3,0.3-0.7,0.3-1
			c0.3-0.1,0.6-0.2,0.7-0.3c0,0,0,0,0.1,0c0,0,0.1,0,0.1,0c0,0.1,0,0.1,0.1,0.2l1.5,4.2c0.1,0.3,0.2,0.6,0.3,0.8
			c0.1,0.2,0.2,0.3,0.5,0.3h0.1v0L53.1,54.3L53.1,54.3z"/>
		<path fill="#231F20" d="M53.5,49c-0.6,0-0.6,0.1-0.8,0.7h-0.2c0-0.2,0.1-0.5,0.1-0.7c0-0.2,0-0.5,0-0.7h0.2
			c0.1,0.2,0.3,0.2,0.5,0.2h4.2c0.2,0,0.4,0,0.4-0.3l0.2,0c0,0.2-0.1,0.4-0.1,0.7c0,0.2,0,0.4,0,0.7l-0.2,0.1c0-0.3-0.1-0.8-0.6-0.8
			h-1.3v4.3c0,0.6,0.3,0.7,0.7,0.7h0.2v0.2c-0.3,0-0.9,0-1.3,0c-0.5,0-1.1,0-1.4,0V54h0.2c0.4,0,0.7,0,0.7-0.7V49L53.5,49L53.5,49z"
			/>
		<path fill="#231F20" d="M56.7,54.3c-0.3,0-0.9,0-1.3,0c-0.5,0-1.1,0-1.4,0h0v0V54h0h0.2c0.4,0,0.6,0,0.6-0.6l0-4.3h-1.3v0v0h1.4
			v4.4c0,0.7-0.3,0.7-0.7,0.7H54v0.2c0.3,0,0.9,0,1.3,0C55.8,54.2,56.3,54.2,56.7,54.3l0-0.2h-0.1c-0.4,0-0.7-0.1-0.7-0.7V49h1.4
			c0.5,0,0.6,0.5,0.6,0.8l0.2-0.1c0-0.2,0-0.4,0-0.6c0-0.2,0.1-0.4,0.1-0.6l-0.1,0c0,0.2-0.3,0.2-0.5,0.2h-4.2h0
			c-0.2,0-0.4,0-0.5-0.2h-0.1c0,0.2,0,0.4,0,0.7c0,0.2-0.1,0.4-0.1,0.7h0.2c0.1-0.6,0.2-0.7,0.8-0.7v0v0c-0.6,0-0.6,0.1-0.7,0.7l0,0
			h0h-0.3l0,0c0-0.2,0.1-0.5,0.1-0.7c0-0.2,0-0.5,0-0.7v0h0h0.2l0,0c0.1,0.2,0.2,0.2,0.4,0.2h0h4.2c0.2,0,0.4,0,0.4-0.2l0,0l0,0
			l0.2,0l0,0c0,0.2-0.1,0.4-0.1,0.7c0,0.2,0,0.4,0,0.7v0l0,0l-0.3,0.1l0,0c0-0.3-0.1-0.7-0.6-0.7h-1.3v4.3c0,0.6,0.3,0.7,0.6,0.7
			h0.2v0L56.7,54.3L56.7,54.3L56.7,54.3z"/>
		<path fill="#231F20" d="M58.4,54h0.1c0.3,0,0.6,0,0.6-0.5v-4.2c0-0.4-0.3-0.5-0.6-0.5h-0.1v-0.2c0.3,0,0.8,0,1.2,0
			c0.4,0,0.9,0,1.3,0v0.2h-0.1c-0.3,0-0.6,0-0.6,0.5v4.2c0,0.4,0.3,0.5,0.6,0.5h0.1v0.2c-0.4,0-0.9,0-1.3,0c-0.4,0-0.9,0-1.2,0
			L58.4,54L58.4,54z"/>
		<path fill="#231F20" d="M60.9,54.2v-0.2h-0.1c-0.3,0-0.6-0.1-0.6-0.5v-4.2c0-0.4,0.3-0.5,0.6-0.5h0.1v-0.2c-0.4,0-0.8,0-1.2,0
			c-0.4,0-0.8,0-1.2,0v0.2h0.1c0.3,0,0.6,0.1,0.6,0.5v4.2c0,0.4-0.3,0.5-0.6,0.5h-0.1v0.2c0.3,0,0.8,0,1.2,0
			C60,54.2,60.5,54.2,60.9,54.2 M60.9,54.3c-0.4,0-0.9,0-1.3,0c-0.4,0-0.9,0-1.2,0h0v0V54v0h0h0.1c0.3,0,0.6,0,0.6-0.4v-4.2
			c0-0.4-0.3-0.4-0.6-0.4h-0.1v0v-0.3h0c0.3,0,0.8,0,1.2,0c0.4,0,0.9,0,1.3,0h0v0v0.3h0h-0.1c-0.3,0-0.6,0-0.6,0.4v4.2
			c0,0.4,0.3,0.4,0.6,0.4h0.1v0L60.9,54.3L60.9,54.3L60.9,54.3z"/>
		<path fill="#231F20" d="M64.3,54c1.6,0,1.8-1.4,1.8-2.6c0-1.2-0.6-2.6-2-2.6c-1.4,0-1.8,1.3-1.8,2.4C62.3,52.6,62.9,54,64.3,54
			 M64.1,48.5c1.7,0,3.1,1.1,3.1,2.8c0,1.9-1.3,3.1-3.1,3.1c-1.7,0-3-1.2-3-2.9C61.1,49.8,62.5,48.5,64.1,48.5"/>
		<path fill="#231F20" d="M62.2,51.2c0-1.1,0.4-2.4,1.9-2.4c1.4,0,2,1.5,2,2.7c0,1.2-0.3,2.6-1.9,2.6v0v0c1.5,0,1.8-1.4,1.8-2.5
			c0-1.2-0.6-2.6-2-2.6C62.7,48.9,62.3,50.1,62.2,51.2c0.1,1.4,0.7,2.8,2,2.8v0v0C62.9,54.1,62.2,52.7,62.2,51.2 M61.1,51.5
			c0-1.7,1.3-3,3-3v0v0C62.5,48.5,61.2,49.8,61.1,51.5c0.1,1.7,1.4,2.9,3.1,2.9c1.7,0,3-1.2,3-3.1c0-1.7-1.4-2.8-3.1-2.8v0v0
			c1.7,0,3.1,1.1,3.1,2.8c0,1.9-1.4,3.1-3.1,3.1C62.4,54.4,61.1,53.2,61.1,51.5"/>
		<path fill="#231F20" d="M72.7,52.7L72.7,52.7l0-3.1c0-0.7-0.5-0.8-0.7-0.8h-0.2v-0.2c0.4,0,0.8,0,1.1,0c0.3,0,0.7,0,1,0v0.2h-0.1
			c-0.3,0-0.7,0.1-0.7,1v3.7c0,0.3,0,0.6,0,0.8h-0.3l-4.2-4.7v3.3c0,0.7,0.1,0.9,0.8,0.9h0.1v0.2c-0.3,0-0.7,0-1,0
			c-0.4,0-0.7,0-1.1,0V54h0.1c0.6,0,0.7-0.4,0.7-1v-3.4c0-0.5-0.4-0.7-0.7-0.7h-0.1v-0.2c0.3,0,0.6,0,0.9,0c0.2,0,0.5,0,0.7,0
			L72.7,52.7z"/>
		<path fill="#231F20" d="M72.7,52.7L72.7,52.7L72.7,52.7L72.7,52.7z M72.7,52.7L72.7,52.7L72.7,52.7z M72.9,54.4h0.3
			c0-0.2,0-0.5,0-0.8v-3.7c0-1,0.4-1.1,0.8-1.1h0.1v-0.2c-0.3,0-0.6,0-1,0c-0.4,0-0.7,0-1.1,0v0.2H72c0.3,0,0.7,0.1,0.7,0.8l0,3.1
			l0,0l0,0l-3.6-4.1c-0.2,0-0.5,0-0.7,0c-0.3,0-0.6,0-0.9,0v0.2h0.1c0.4,0,0.8,0.3,0.8,0.8V53c0,0.6-0.2,1.1-0.8,1.1l-0.1,0v0.2
			c0.4,0,0.7,0,1.1,0c0.3,0,0.7,0,1,0v-0.2h-0.1c-0.6,0-0.8-0.3-0.8-1v-3.4L72.9,54.4z M73.2,54.4l-0.3,0l-4.1-4.6v3.2
			c0,0.7,0.1,0.9,0.7,0.9h0.2v0v0.3h0c-0.4,0-0.7,0-1,0c-0.4,0-0.7,0-1.1,0h0v0V54h0h0.1c0.5,0,0.7-0.3,0.7-1v-3.4
			c0-0.4-0.4-0.7-0.7-0.7h-0.1v0v-0.3h0c0.3,0,0.6,0,0.9,0c0.2,0,0.5,0,0.7,0l3.6,4v-3c0-0.6-0.4-0.7-0.7-0.7h-0.2v0v-0.3h0
			c0.4,0,0.8,0,1.1,0c0.3,0,0.7,0,1,0h0v0v0.3h0h-0.1c-0.3,0-0.7,0-0.7,1v3.7C73.2,53.9,73.2,54.1,73.2,54.4L73.2,54.4L73.2,54.4
			L73.2,54.4z"/>
		<path fill="#231F20" d="M76.5,49.5L76.5,49.5l-0.8,2.3h1.5L76.5,49.5z M75.3,53.1c-0.1,0.3-0.2,0.5-0.2,0.6c0,0.2,0.3,0.3,0.6,0.3
			h0.1v0.2c-0.3,0-0.7,0-1,0c-0.3,0-0.6,0-0.9,0V54h0c0.3,0,0.6-0.2,0.7-0.5l1.3-3.7c0.1-0.3,0.3-0.7,0.3-1c0.3-0.1,0.6-0.3,0.7-0.3
			c0,0,0,0,0.1,0c0,0,0,0,0.1,0c0,0.1,0,0.1,0.1,0.2l1.5,4.2c0.1,0.3,0.2,0.6,0.3,0.8c0.1,0.2,0.3,0.3,0.5,0.3h0v0.2
			c-0.4,0-0.7,0-1.1,0c-0.4,0-0.8,0-1.2,0V54h0.1c0.2,0,0.5,0,0.5-0.2c0-0.1-0.1-0.3-0.2-0.6l-0.3-0.9h-1.8L75.3,53.1z"/>
		<path fill="#231F20" d="M76.4,49.5L76.4,49.5L76.4,49.5z M75.7,51.8h1.4l-0.7-2.2L75.7,51.8z M75.6,51.8l0.8-2.4h0h0v0l0,0l0,0v0
			h0l0.8,2.4H75.6z M77.3,54.2c0.4,0,0.8,0,1.2,0c0.4,0,0.7,0,1.1,0l0-0.2h0c-0.3,0-0.5-0.1-0.6-0.3c-0.1-0.2-0.2-0.5-0.3-0.8
			l-1.5-4.2c0-0.1,0-0.1-0.1-0.2c0,0,0,0,0,0h0c0,0,0,0,0,0c-0.2,0.1-0.5,0.3-0.7,0.3c-0.1,0.3-0.2,0.7-0.3,1l-1.3,3.7
			c-0.1,0.4-0.4,0.6-0.7,0.6h0v0.2c0.3,0,0.6,0,0.8,0c0.3,0,0.6,0,0.9,0v-0.2h-0.1c-0.3,0-0.6,0-0.6-0.3c0-0.2,0.1-0.4,0.2-0.6l0,0
			l0,0l0.3-0.9h1.9l0.3,1c0.1,0.3,0.2,0.5,0.2,0.6c0,0.2-0.4,0.3-0.5,0.3h-0.1L77.3,54.2L77.3,54.2z M79.6,54.3c-0.4,0-0.7,0-1.1,0
			c-0.4,0-0.8,0-1.2,0l0,0v0V54h0h0.1c0.2,0,0.5,0,0.5-0.2c0-0.1-0.1-0.3-0.2-0.6l-0.3-0.9h-1.8l-0.3,0.8c-0.1,0.3-0.2,0.5-0.2,0.6
			c0,0.2,0.3,0.2,0.6,0.2h0.1v0v0.3l0,0c-0.3,0-0.7,0-1,0c-0.3,0-0.6,0-0.9,0l0,0v0V54h0h0c0.3,0,0.6-0.2,0.7-0.5l1.3-3.7
			c0.1-0.3,0.3-0.7,0.3-1c0.3-0.1,0.6-0.3,0.7-0.3c0,0,0,0,0.1,0c0,0,0.1,0,0.1,0c0,0.1,0,0.1,0.1,0.2l1.5,4.2
			c0.1,0.3,0.2,0.6,0.3,0.8c0.1,0.2,0.2,0.3,0.5,0.3h0.1v0L79.6,54.3L79.6,54.3z"/>
		<path fill="#231F20" d="M81.6,53.5c0,0.3,0.2,0.4,0.5,0.5c0.3,0,0.7,0,1.1,0c0.3,0,0.6-0.2,0.8-0.4c0.1-0.2,0.2-0.4,0.3-0.6h0.2
			c-0.1,0.5-0.2,0.9-0.3,1.4c-0.7,0-1.4,0-2.1,0c-0.7,0-1.4,0-2.1,0V54H80c0.3,0,0.6,0,0.6-0.5v-4.2c0-0.4-0.3-0.5-0.6-0.5h-0.1
			v-0.2c0.4,0,0.9,0,1.3,0c0.4,0,0.8,0,1.2,0v0.2h-0.2c-0.3,0-0.6,0-0.6,0.4L81.6,53.5L81.6,53.5z"/>
		<path fill="#231F20" d="M84.1,54.2c0.1-0.4,0.2-0.9,0.3-1.3h-0.2c0,0.2-0.1,0.4-0.2,0.6c-0.2,0.2-0.5,0.4-0.8,0.5
			c-0.2,0-0.4,0-0.6,0c-0.2,0-0.3,0-0.5,0c-0.3,0-0.5-0.1-0.5-0.5v-4.2c0-0.5,0.3-0.5,0.6-0.5h0.2v-0.2c-0.4,0-0.8,0-1.2,0
			c-0.4,0-0.8,0-1.2,0v0.2H80c0.3,0,0.6,0.1,0.6,0.5v4.2c0,0.5-0.4,0.6-0.6,0.6h-0.1v0.2c0.7,0,1.4,0,2.1,0
			C82.7,54.2,83.4,54.2,84.1,54.2 M84.2,54.3c-0.7,0-1.4,0-2.1,0c-0.7,0-1.4,0-2.1,0h0v0V54h0H80c0.3,0,0.6,0,0.6-0.5v-4.2
			c0-0.4-0.3-0.4-0.6-0.4h-0.1v0v-0.3h0c0.4,0,0.9,0,1.3,0c0.4,0,0.8,0,1.2,0h0v0v0.3h0h-0.2c-0.3,0-0.5,0-0.5,0.4v4.2
			c0,0.3,0.2,0.4,0.5,0.4c0.1,0,0.3,0,0.4,0c0.2,0,0.4,0,0.6,0c0.3,0,0.6-0.2,0.8-0.4c0.1-0.2,0.2-0.4,0.2-0.6l0,0h0h0.3l0,0
			C84.4,53.4,84.3,53.8,84.2,54.3L84.2,54.3L84.2,54.3L84.2,54.3z"/>
		<path fill="#231F20" d="M84.2,49.2h0.1c0.1,0,0.2-0.1,0.2-0.2c0-0.1-0.1-0.2-0.2-0.2h-0.1V49.2z M83.9,49.7L83.9,49.7
			c0.1-0.1,0.1-0.1,0.1-0.1v-0.6c0-0.1,0-0.1-0.1-0.1v0h0.4c0.2,0,0.3,0.1,0.3,0.2c0,0.1-0.1,0.2-0.2,0.3l0.1,0.2
			c0.1,0.1,0.1,0.2,0.2,0.2v0h-0.2c-0.1,0-0.2-0.2-0.3-0.4h-0.1v0.3c0,0.1,0,0.1,0.1,0.1v0L83.9,49.7L83.9,49.7z M84.4,49.9
			c0.4,0,0.7-0.3,0.7-0.7c0-0.4-0.3-0.7-0.7-0.7c-0.4,0-0.7,0.3-0.7,0.7C83.7,49.6,84,49.9,84.4,49.9 M84.4,48.4
			c0.5,0,0.9,0.4,0.9,0.9c0,0.5-0.4,0.9-0.9,0.9c-0.5,0-0.9-0.4-0.9-0.9C83.5,48.8,83.9,48.4,84.4,48.4"/>
	</g>
	<g>
		<circle fill="#FFFFFF" cx="47.4" cy="20" r="13.7"/>
		<path fill="#004A97" d="M47.5,34c-7.9,0-14.3-6.3-14.3-14.1c0-8.5,6.5-14.3,14.3-14.3h3.7c7.8,0,14.9,5.9,14.9,14.3
			C66,27.6,58.9,34,51.2,34H47.5z M47.5,6.7c-7.2,0-13,5.8-13,13c0,7.2,5.8,13,13,13c7.2,0,13-5.8,13-13
			C60.5,12.5,54.7,6.7,47.5,6.7z M44.5,27.4V12c-3.1,1.2-5.3,4.2-5.3,7.7C39.3,23.2,41.4,26.2,44.5,27.4z M55.8,19.7
			c0-3.5-2.2-6.5-5.3-7.7v15.4C53.6,26.2,55.7,23.2,55.8,19.7z"/>
	</g>
</g>
</svg>
