<?xml version="1.0" encoding="utf-8"?>
<!-- Generator: Adobe Illustrator 23.0.4, SVG Export Plug-In . SVG Version: 6.00 Build 0)  -->
<svg version="1.1" id="Layer_1" xmlns="http://www.w3.org/2000/svg" xmlns:xlink="http://www.w3.org/1999/xlink" x="0px" y="0px"
	 viewBox="0 0 24 24" style="enable-background:new 0 0 24 24;" xml:space="preserve">
<style type="text/css">
	.st0{fill:#FFFFFF;}
	.st1{fill:#E10A0A;}
	.st2{fill:#FFA500;}
	.st3{fill:none;}
	.st4{fill:#4A4A4A;}
	.st5{fill:#4C4C4C;}
</style>
<path class="st5" d="M21.1,6.2h-1.9c0.2-0.6,0.2-1.2,0-1.8c-0.5-1.4-2-2.1-3.4-1.5C15,3.1,13,4.9,11.9,5.9c-1.1-1-3.1-2.8-3.9-3.1
	C6.6,2.3,5.1,3,4.6,4.3c-0.2,0.6-0.2,1.2,0,1.8H2.9C2.4,6.2,2,6.5,2,7v3.7c0,0.5,0.4,0.9,0.9,0.9h0.7v9.8h16.9v-9.8h0.7
	c0.5,0,0.9-0.4,0.9-0.9V7C22,6.5,21.6,6.2,21.1,6.2z M20.3,9.8h-5.4V7.9h5.4V9.8z M10.9,9.8V7.9h2.2v1.9H10.9z M13.1,11.6v8h-2.2v-8
	H13.1z M16.5,4.4c0.5-0.2,1,0.1,1.1,0.5c0.2,0.5-0.1,1-0.5,1.1c0,0-0.1,0.1-0.1,0.1h-2.7C15.3,5.3,16.2,4.5,16.5,4.4z M6.7,6.1
	C6.5,6,6.3,5.8,6.2,5.6s-0.1-0.5,0-0.7c0.2-0.5,0.7-0.7,1.1-0.5c0.3,0.1,1.2,0.8,2.2,1.7H6.8C6.8,6.1,6.8,6.1,6.7,6.1z M3.7,7.9h5.4
	v1.9H3.7V7.9z M5.3,11.6h3.9v8H5.3V11.6z M18.7,19.6h-3.9v-8h3.9V19.6z"/>
</svg>
