<svg width="390" height="442" viewBox="0 0 390 442" fill="none" xmlns="http://www.w3.org/2000/svg">
<g clip-path="url(#clip0_376_1333)">
<path d="M154.24 332.89C153.643 335.126 148.134 336.683 149.612 338.77C150.274 339.7 152.087 340.094 153.733 340.32C160.745 341.28 168.044 341.018 175.2 340.75L232.791 338.597C231.491 337.488 232.087 335.747 233.983 335.019C235.295 334.536 237.239 334.351 237.561 333.451C238.002 332.258 235.23 331.716 233.22 331.698C210.767 331.519 188.307 331.729 165.838 332.33C160.895 332.461 155.438 332.747 152.022 334.906" fill="#0E123C"/>
<path d="M162.421 120.827C164.806 120.106 166.595 118.728 167.37 116.307C168.664 112.264 164.771 108.209 160.662 107.136C156.554 106.063 152.212 106.85 147.985 106.385C143.757 105.919 139.69 104.22 135.516 103.314C131.342 102.407 126.571 102.425 123.202 105.049C121.234 106.569 119.738 108.937 117.317 109.467C113.739 110.255 110.286 106.629 106.756 107.524C104.109 108.174 102.719 111.101 100.495 112.705C98.2709 114.309 76.953 114.095 81.6221 120.028C82.2641 120.709 83.0946 121.182 84.0073 121.388C95.4682 125.055 109.052 121.477 120.811 120.702C127.203 120.278 134.46 119.885 141.193 119.921C145.749 119.945 156.065 122.765 162.421 120.827Z" fill="#DDF1F1"/>
<path d="M227.573 171.978C225.188 171.256 223.399 169.879 222.624 167.458C221.33 163.415 225.223 159.36 229.332 158.287C233.441 157.213 237.794 158.001 242.015 157.541C246.237 157.082 250.286 155.371 254.472 154.465C258.658 153.558 263.417 153.576 266.786 156.2C268.754 157.72 270.25 160.088 272.671 160.618C276.249 161.405 279.702 157.78 283.232 158.674C285.891 159.348 287.275 162.252 289.505 163.85C291.735 165.448 313.047 165.246 308.378 171.179C307.736 171.859 306.905 172.333 305.993 172.538C294.532 176.206 280.948 172.628 269.189 171.853C262.797 171.429 255.54 171.036 248.807 171.072C244.246 171.078 233.906 173.904 227.573 171.978Z" fill="#DDF1F1"/>
<path d="M178.134 134.566C179.213 134.351 204.246 138.024 212.659 138.024C221.073 138.024 224.526 138.132 227.329 135.544C230.131 132.956 248.754 118.472 248.754 118.472C248.754 118.472 256.476 116.653 256.452 119.36C256.404 124.792 242.188 136.993 239.624 139.855C236.643 143.153 227.329 153.123 222.332 153.057C216.541 152.986 197.018 154.25 192.379 153.254" fill="#E0B999"/>
<path d="M162.29 123.624C162.902 125.434 163.828 127.121 165.027 128.609C169.052 133.528 175.087 136.432 178.444 135.317C187.424 132.336 183.357 116.134 180.054 110.589C179.01 108.835 177.543 107.106 175.528 106.76C168.587 105.568 161.521 110.273 161.217 117.428C160.972 123.57 164.526 127.852 162.785 134.411C162.302 136.236 161.592 138.329 162.689 139.885C163.787 141.441 165.957 141.561 167.836 141.489C169.911 141.405 172.194 141.179 173.638 139.7C175.081 138.221 175.23 135.699 175.212 133.516C175.212 130.773 174.979 127.625 172.791 125.961C171.598 125.055 170.054 124.804 168.569 124.578L163.041 123.731" fill="#F7D0AD"/>
<path d="M158.384 137.422C155.146 138.883 140.584 138.561 142.206 151.179C143.828 163.797 149.326 168.979 153.536 175.126C157.746 181.274 162.594 196.957 162.594 200.606C162.594 204.256 178.45 220.755 191.717 212.986C204.985 205.216 194.645 195.83 194.645 188.078C194.645 180.326 196.834 161.066 195.617 152.807C194.425 144.733 193.655 139.861 186.864 135.979C180.072 132.097 158.384 137.422 158.384 137.422Z" fill="#F7D0AD"/>
<path d="M159.332 240.505C157.633 240.714 157.543 261.203 157.239 268.967C156.935 276.73 147.901 278.352 146.607 286.766C145.313 295.18 140.459 314.918 141.753 323.01L153.536 317.315C153.536 317.315 155.325 308.448 158.581 301.656C161.747 294.995 181.383 274.047 182.481 252.509C182.502 252.106 182.422 251.705 182.247 251.342C182.072 250.979 181.807 250.667 181.479 250.434C177.853 247.881 165.623 239.742 159.332 240.505Z" fill="#F7D0AD"/>
<path d="M204.204 321.936C204.204 321.936 204.878 302.753 208.074 292.318C209.076 289.056 210.239 285.609 210.406 282.181C210.543 279.283 209.571 276.498 209.35 273.63C209.201 271.686 209.284 269.7 209.308 267.75C209.362 263.54 209.499 259.336 209.66 255.132C209.875 249.523 210.131 243.916 210.429 238.311L189.946 243.677C189.946 243.677 188.39 266.069 192.26 275.824C192.26 275.824 192.934 281.042 192.26 284.071C191.586 287.1 193.453 313.516 195.456 321.93" fill="#F7D0AD"/>
<path d="M162.725 200.428C159.952 201.62 158.301 210.165 157.991 212.055C157.335 216.057 158.468 219.157 159.07 223.165C160.155 230.398 158.509 236.975 156.631 243.987C156.52 244.398 156.51 244.83 156.602 245.245C156.695 245.661 156.887 246.048 157.162 246.373C161.473 251.411 168.491 253.576 175.212 254.023C178.128 254.22 181.175 254.119 183.769 252.765C187.347 250.905 188.79 242.294 188.736 239.02C190.459 235.031 188.963 247.261 189.058 248.943C189.374 254.244 188.813 256.14 195.939 254.906C199.43 254.292 202.804 253.137 205.939 251.483C207.919 250.433 209.881 249.128 211.002 247.184C212.266 245.001 212.29 242.324 212.045 239.813C211.378 232.866 209.35 225.878 207.18 219.295C205.701 214.792 204.413 210.111 201.777 206.11C198.42 201 195.385 202.199 189.774 203.296C185.319 204.166 180.769 204.846 176.231 204.405C172.153 204.011 168.038 203.558 164.735 200.934C164.488 200.708 164.204 200.526 163.894 200.398C163.515 200.259 163.097 200.27 162.725 200.428Z" fill="#CA2027"/>
<mask id="mask0_376_1333" style="mask-type:luminance" maskUnits="userSpaceOnUse" x="155" y="199" width="58" height="57">
<path d="M162.177 199.956C159.356 201.149 157.675 209.837 157.358 211.751C156.691 215.812 157.841 218.955 158.456 223.021C159.559 230.362 157.859 237.035 155.969 244.148C155.855 244.565 155.844 245.004 155.938 245.425C156.032 245.847 156.226 246.24 156.506 246.569C160.895 251.686 168.056 253.88 174.872 254.321C177.853 254.518 180.942 254.417 183.578 253.045C187.203 251.161 188.73 243.761 188.676 240.434C190.137 236.814 188.402 247.124 188.503 248.829C188.825 254.196 188.682 256.14 195.933 254.864C199.426 254.258 202.802 253.103 205.933 251.441C207.949 250.38 209.851 249.116 210.996 247.142C212.207 244.926 212.683 242.383 212.355 239.879C211.676 232.831 209.613 225.735 207.406 219.056C205.898 214.488 204.592 209.736 201.914 205.675C198.497 200.487 195.409 201.704 189.702 202.819C185.17 203.701 180.543 204.387 175.921 203.946C171.747 203.546 167.573 203.087 164.228 200.422C163.976 200.192 163.685 200.008 163.369 199.879C162.976 199.752 162.55 199.78 162.177 199.956Z" fill="white"/>
</mask>
<g mask="url(#mask0_376_1333)">
<path d="M202.016 255.21L206.655 260.04L205.039 261.584L198.861 255.138L202.016 255.21Z" fill="white"/>
<path d="M201.807 264.661L192.541 254.995L195.695 255.067L203.423 263.123L201.807 264.661Z" fill="white"/>
<path d="M198.581 267.744L186.226 254.858L189.38 254.924L200.191 266.206L198.581 267.744Z" fill="white"/>
<path d="M195.349 270.827L179.905 254.715L183.059 254.787L196.959 269.283L195.349 270.827Z" fill="white"/>
<path d="M176.739 254.643L193.733 272.366L192.117 273.904L173.584 254.572L176.739 254.643Z" fill="white"/>
<path d="M188.885 276.987L167.263 254.435L170.418 254.506L190.501 275.448L188.885 276.987Z" fill="white"/>
<path d="M187.269 278.525L185.653 280.064L160.942 254.292L164.103 254.363L187.269 278.525Z" fill="white"/>
<path d="M182.427 283.147L154.622 254.148L157.782 254.22L184.037 281.608L182.427 283.147Z" fill="white"/>
<path d="M179.195 286.23L148.301 254.011L151.461 254.077L180.805 284.691L179.195 286.23Z" fill="white"/>
<path d="M224.49 255.836L224.204 268.662L223.864 268.311L196.434 294.458L209.064 294.739L230.03 274.745L229.654 274.351L230.066 256.009L228.951 255.973L228.563 273.212L227.472 272.073L227.836 255.937L226.721 255.902L226.387 270.964L225.295 269.825L225.605 255.896L224.49 255.836ZM144.395 253.922L143.512 293.278H144.574L145.379 257.386L146.47 258.525L145.689 293.302H146.804L147.561 259.64L148.635 260.827L147.901 293.373H149.016L149.72 261.942L150.811 263.081L150.131 293.397H151.247L151.902 264.178L152.994 265.317L152.362 293.409H153.477L154.073 266.432L155.164 267.571L154.568 293.433H155.683L156.238 268.686L157.329 269.825L156.798 293.457H157.913L158.42 270.94L159.511 272.079L159.028 293.486H160.143L160.597 273.212L161.688 274.351L161.258 293.528H162.374L162.779 275.466L163.87 276.605L163.542 293.731H164.657L165.015 277.899L166.106 279.038L165.778 293.755H166.894L167.198 280.147L168.289 281.286L168.009 293.779H169.124L169.38 282.401L170.471 283.54L170.239 293.803H171.354L171.557 284.655L172.648 285.794L172.469 293.826H173.584L173.739 286.903L174.83 288.042L174.699 293.85L183.751 294.053L217.639 261.739L218.7 262.848L218.867 255.538L217.752 255.502L217.615 261.71L216.524 260.571L216.637 255.466L215.522 255.43L215.433 259.432L214.371 258.442L214.437 255.544L213.322 255.508L213.28 257.297L212.189 256.158V255.466H211.491L175.945 289.36L177.561 287.822L145.122 253.993L144.395 253.922Z" fill="white"/>
<path d="M193.355 228.282L193.255 232.735L238.568 233.756L238.668 229.302L193.355 228.282Z" fill="white"/>
<path d="M174.836 254.554L156.947 254.154L144.681 241.364L145.081 223.528L174.836 254.554Z" fill="white"/>
<path d="M151.211 193.379L193.149 237.118V237.184L238.462 238.191L238.36 242.646L193.047 241.632L192.946 246.092L238.259 247.106L238.158 251.56L192.845 250.547L192.749 254.953L145.48 205.663L145.76 193.26L151.211 193.379Z" fill="white"/>
<path d="M186.935 194.178L193.948 201.489L193.846 205.985L193.751 210.445L217.967 210.982L217.448 210.445L227.144 201.203L227.072 204.351L218.993 212.055L220.537 213.665L227.001 207.506L226.929 210.654L222.081 215.275L222.332 215.538L193.65 214.9L193.548 219.33L169.052 193.779L186.935 194.178Z" fill="white"/>
<path d="M227.102 195.073L214.359 207.225L215.904 208.835L227.233 198.054L227.293 195.293L226.738 220.105L193.566 219.366L193.465 223.82L238.784 224.834L238.885 220.38L233.721 220.266L234.282 195.222L227.102 195.073ZM214.461 194.792L208.182 200.755L209.225 201.847L193.954 201.531L193.852 205.985L213.602 206.426L212.821 205.615L223.948 195.007L220.787 194.936L211.247 204.005L209.702 202.395L217.597 194.87L214.461 194.792Z" fill="white"/>
</g>
<path d="M178.694 121.149C191.568 119.807 266.601 108.77 282.016 106.635C283.966 106.361 286.041 106.945 287.072 108.376C288.563 110.445 289.678 115.043 286.78 118.764C285.766 120.07 284.431 120.595 282.606 120.654L180.179 123.892C178.903 123.934 177.842 123.069 177.842 121.978C177.856 121.759 177.951 121.553 178.109 121.4C178.266 121.247 178.475 121.157 178.694 121.149Z" fill="#162049"/>
<path d="M189.952 156.194C192.159 154.214 193.268 152.175 194.991 149.76C196.714 147.345 199.445 145.335 201.246 143.01C203.047 140.684 203.798 138.764 204.985 136.134C206.482 132.813 208.736 130.911 211.365 128.871C210.458 128.863 209.568 128.626 208.777 128.181C207.987 127.735 207.322 127.097 206.845 126.325C202.558 130.708 198.497 135.204 193.447 138.919C186.201 144.232 180.59 148.168 171.383 149.414C164.955 150.284 159.099 147.219 152.85 146.474C151.264 146.283 149.612 146.104 148.08 146.647C144.168 148.06 144.323 151.656 146.034 154.828C150.25 162.64 158.312 164.965 166.482 165.919C171.998 166.552 177.74 165.156 182.653 162.652C185.563 161.179 187.525 158.376 189.952 156.194Z" fill="#E0B999"/>
<path d="M217.418 116.2C216.969 116.033 216.496 115.94 216.017 115.925C214.299 115.872 212.827 117.064 211.556 118.221C205.301 123.904 202.171 130.744 195.307 135.788C188.062 141.101 181.384 146.403 172.171 147.649C165.743 148.519 159.106 143.689 152.856 142.944C151.27 142.753 149.619 142.574 148.116 143.117C145.045 144.226 143.745 147.953 143.852 151.221C144.127 159.509 151.181 160.457 157.973 162.866C165.766 165.627 176.357 165.413 183.077 159.927C188.259 155.699 193.417 151.417 198.241 146.808C201.867 143.326 203.548 138.955 207.502 135.818C211.127 132.866 216.613 131.525 219.714 127.852C220.724 126.726 221.511 125.419 222.034 123.999C222.291 123.289 222.404 122.535 222.367 121.781C222.33 121.026 222.144 120.286 221.819 119.605C221.059 118.378 219.959 117.398 218.652 116.784C218.255 116.56 217.843 116.365 217.418 116.2Z" fill="#F7D0AD"/>
<path d="M248.736 110.439C248.694 111.507 248.396 111.918 248.873 112.872C249.636 114.393 251.258 115.073 252.892 115.258C254.894 115.406 256.892 114.907 258.588 113.833C260.285 112.759 261.591 111.168 262.314 109.295C262.773 108.013 262.91 106.426 261.956 105.425C261.413 104.909 260.731 104.565 259.994 104.435C258.047 104.011 256.017 104.187 254.172 104.938C252.327 105.69 250.752 106.982 249.654 108.645" fill="#E0B999"/>
<path d="M284.12 119.396C285.82 119.396 287.197 116.862 287.197 113.737C287.197 110.612 285.82 108.078 284.12 108.078C282.421 108.078 281.044 110.612 281.044 113.737C281.044 116.862 282.421 119.396 284.12 119.396Z" fill="white"/>
<path d="M175.087 134.733C172.534 133.908 170.122 132.702 167.931 131.155C167.492 130.792 166.93 130.613 166.363 130.654C166.291 130.659 166.223 130.683 166.166 130.726C166.029 130.845 166.112 131.078 166.22 131.221C166.506 131.57 166.854 131.865 167.245 132.091C170.355 134.057 173.866 135.3 177.519 135.729C178.116 135.806 178.444 135.252 177.722 135.198C176.83 135.13 175.948 134.974 175.087 134.733Z" fill="#E0B999"/>
<path d="M179.046 105.925C178.818 105.66 178.532 105.451 178.211 105.314C177.889 105.176 177.541 105.114 177.191 105.132C176.498 105.291 175.784 105.343 175.075 105.287C174.486 105.084 173.92 104.818 173.387 104.494C171.443 103.612 169.141 104.602 167.657 106.128C167.484 106.353 167.247 106.519 166.977 106.605C166.758 106.616 166.543 106.549 166.369 106.415C166.196 106.282 166.075 106.092 166.029 105.878C165.94 105.443 165.956 104.993 166.076 104.566C165.595 104.624 165.137 104.807 164.748 105.097C164.359 105.387 164.052 105.773 163.858 106.218C163.666 106.675 163.591 107.173 163.64 107.666C163.689 108.16 163.86 108.633 164.138 109.044C163.846 109.193 163.488 108.919 163.405 108.591C163.358 108.26 163.408 107.922 163.548 107.619C162.403 107.756 161.061 108.042 160.626 109.134C160.457 109.821 160.432 110.536 160.555 111.233C160.555 111.942 160.394 112.771 159.761 113.021C159.454 113.105 159.141 113.167 158.825 113.206C157.686 113.51 157.376 115.085 157.752 116.247C157.99 116.987 158.503 117.625 158.724 118.34C159.028 119.33 158.784 120.571 158.927 121.602C158.972 122.211 159.147 122.804 159.44 123.34C159.733 123.875 160.138 124.342 160.626 124.709C160.936 124.906 161.288 125.043 161.586 125.264C161.992 125.562 161.986 125.997 162.284 126.319C162.665 126.736 163.339 126.82 163.685 127.315C163.413 126.986 163.215 126.604 163.102 126.193C162.988 125.781 162.964 125.351 163.029 124.93C163.238 124.107 164.222 123.516 164.931 123.993C165.713 124.542 165.581 125.967 166.428 126.379C166.798 126.564 167.239 126.48 167.621 126.629C168.002 126.778 168.253 127.404 167.883 127.583C168.42 127.637 169.076 127.464 169.213 126.921C169.362 126.23 168.491 125.466 168.897 124.9C169.159 124.536 169.714 124.643 170.125 124.482C170.409 124.321 170.633 124.073 170.765 123.774C170.897 123.476 170.93 123.143 170.859 122.825C170.716 121.698 169.964 120.803 169.499 119.795C169.207 119.163 169.01 119.199 168.634 118.686C168.497 118.524 168.403 118.329 168.362 118.12C168.321 117.912 168.335 117.696 168.402 117.494C169.332 114.942 174.419 117.029 176.297 116.104C177.214 115.747 178.074 115.257 178.849 114.649C179.505 114.119 180.042 112.3 180.99 112.562C181.688 112.759 181.717 114.041 181.932 114.655C181.843 113.534 183.405 112.58 182.862 111.191C182.564 110.434 181.968 110.35 181.491 109.831C181.175 109.485 181.193 109.175 181.026 108.746C180.859 108.317 180.823 108.072 180.471 107.857C180.286 107.744 179.189 107.553 179.1 107.786C179.082 107.828 179.612 106.51 179.046 105.925Z" fill="#0E123C"/>
<path d="M159.368 106.903C158.396 107.5 155.891 109.939 155.79 110.332C155.689 110.726 159.141 113.999 160.215 114.506C160.215 114.506 160.847 114.995 162.695 114.506C164.693 113.982 175.379 109.497 176.303 107.41C176.303 107.41 176.643 107.142 176.058 105.126C175.743 104.119 175.588 103.069 175.599 102.014C175.552 101.793 175.283 100.702 173.214 101.262C171.145 101.823 162.552 104.936 159.368 106.903Z" fill="#DCDBDB"/>
<path d="M158.42 110.112C158.369 108.937 158.657 107.772 159.247 106.756C159.838 105.739 160.708 104.913 161.753 104.375C164.03 103.111 166.491 102.209 169.046 101.704C169.535 101.561 173.274 101.608 173.763 102.723C173.781 102.723 161.05 109.336 158.42 110.112Z" fill="#F4F2F3"/>
<path d="M156.637 305.973C155.319 309.67 153.924 313.397 153.53 317.303C153.137 321.209 153.858 325.401 156.363 328.424C158.867 331.447 162.666 333.898 165.832 336.271C166.428 336.724 167.09 337.273 167.132 338.018C167.215 339.432 165.283 339.909 163.87 339.891C157.859 339.819 147.806 341.477 144.252 334.858C143.017 332.556 140.954 327.965 140.453 325.407C139.821 322.169 141.813 319.086 143.178 316.08" fill="#F7D0AD"/>
<path d="M205.48 305.973C204.288 309.032 204.759 315.407 204.091 318.668C203.363 322.199 205.397 324.286 207.824 327.017C209.35 328.746 211.479 329.795 213.441 331.018C215.886 332.544 221.193 338.287 214.854 338.215C209.416 338.156 200.322 339.527 197.108 334.041C195.987 332.133 194.127 328.34 193.673 326.218C193.077 323.54 194.192 309.897 195.426 307.41" fill="#F7D0AD"/>
<mask id="mask1_376_1333" style="mask-type:luminance" maskUnits="userSpaceOnUse" x="281" y="108" width="7" height="12">
<path d="M284.12 119.396C285.82 119.396 287.197 116.862 287.197 113.737C287.197 110.612 285.82 108.078 284.12 108.078C282.421 108.078 281.044 110.612 281.044 113.737C281.044 116.862 282.421 119.396 284.12 119.396Z" fill="white"/>
</mask>
<g mask="url(#mask1_376_1333)">
<path d="M293.999 102.041L293.243 100.99L272.617 115.828L273.373 116.879L293.999 102.041Z" fill="#DDF1F1"/>
<path d="M297.027 106.242L295.335 103.889L274.708 118.727L276.401 121.079L297.027 106.242Z" fill="#DDF1F1"/>
<path d="M298.404 108.163L298.028 107.64L277.402 122.478L277.778 123.001L298.404 108.163Z" fill="#DDF1F1"/>
</g>
<path d="M279.91 119.664C278.901 118.395 278.315 116.841 278.235 115.222C278.205 114.53 278.235 113.737 277.716 113.266C277.436 114.222 277.349 115.225 277.462 116.215C277.574 117.206 277.884 118.163 278.372 119.032C278.502 119.303 278.709 119.529 278.968 119.682C279.097 119.755 279.248 119.778 279.392 119.746C279.537 119.714 279.664 119.63 279.749 119.509" fill="#253B7E"/>
</g>
<defs>
<clipPath id="clip0_376_1333">
<rect width="228.08" height="240" fill="white" transform="translate(80.9601 101)"/>
</clipPath>
</defs>
</svg>
