<svg width="31" height="20" viewBox="0 0 31 20" fill="none" xmlns="http://www.w3.org/2000/svg">
<path fill-rule="evenodd" clip-rule="evenodd" d="M0.5 9.9535C0.5 9.9535 7.21548 0.5 15.5 0.5C23.7845 0.5 30.5 9.9535 30.5 9.9535C30.5 9.9535 23.7845 19.5 15.5 19.5C7.21548 19.5 0.5 9.9535 0.5 9.9535ZM15.4995 16.3646C12.192 16.3646 9.51084 13.5148 9.51084 9.99968C9.51084 6.48456 12.192 3.63472 15.4995 3.63472C18.8075 3.63472 21.4888 6.48456 21.4888 9.99968C21.4888 13.5148 18.8077 16.3646 15.4995 16.3646ZM18.6627 9.99968C18.6627 11.8563 17.2464 13.3611 15.5 13.3611C13.7531 13.3611 12.3369 11.8563 12.3369 9.99968C12.3369 8.14302 13.7531 6.63829 15.5 6.63829C17.2464 6.63829 18.6627 8.14302 18.6627 9.99968Z" fill="#4A4A4A"/>
</svg>
