<svg width="390" height="443" viewBox="0 0 390 443" fill="none" xmlns="http://www.w3.org/2000/svg">
<path d="M257.515 339.948C257.803 339.99 258.094 340.017 258.385 340.027C259.385 340.027 260.385 339.888 261.315 339.958C262.925 340.068 264.435 340.868 266.055 340.738C266.355 340.738 266.695 340.617 266.775 340.367C266.855 340.117 266.605 339.918 266.345 339.858C266.075 339.814 265.798 339.831 265.535 339.907L264.345 338.837C264.038 338.514 263.657 338.271 263.235 338.128C262.613 338.038 261.978 338.1 261.385 338.307C261.092 338.408 260.78 338.442 260.473 338.408C260.165 338.373 259.868 338.271 259.605 338.108C259.445 337.978 259.345 337.798 259.165 337.668C258.696 337.462 258.167 337.444 257.685 337.617C256.822 337.827 255.931 337.898 255.045 337.828C253.755 337.688 252.955 336.918 251.945 336.348C250.913 335.746 249.837 335.224 248.725 334.788C248.039 334.502 247.299 334.365 246.556 334.388C245.813 334.41 245.083 334.591 244.415 334.918C244.184 335.118 243.928 335.289 243.655 335.428C242.794 335.576 241.909 335.487 241.095 335.168C238.095 334.578 233.865 333.308 231.835 334.378C230.305 335.188 224.785 334.108 222.945 334.378C228.175 334.428 239.525 339.088 244.755 339.078C247.165 339.078 249.565 338.937 251.945 338.867C253.885 338.827 255.635 339.668 257.515 339.948Z" fill="#CCAD83"/>
<path d="M148.535 338.838C149.535 338.838 176.045 340.358 153.075 336.028C149.985 335.928 141.495 334.878 138.835 333.678C136.375 332.568 134.425 330.878 131.945 329.808C129.465 328.738 125.995 328.468 124.015 330.068C123.596 330.49 123.125 330.86 122.615 331.168C121.195 331.818 119.485 330.968 117.905 330.588C112.425 329.288 108.295 333.498 104.555 335.818C101.854 337.407 98.8555 338.428 95.7451 338.818C112.055 339.048 132.185 339.388 148.535 338.838Z" fill="#CCAD83"/>
<path d="M279.835 344.398C279.835 346.038 277.025 346.758 275.905 347.238C268.905 350.178 260.245 350.578 252.855 351.408C239.855 352.868 237.165 356.538 224.125 357.108C208.735 357.778 183.075 354.958 167.775 354.468C159.775 354.218 151.655 356.248 143.605 356.238C135.412 356.234 127.235 355.491 119.175 354.018C114.565 353.168 109.915 352.078 105.235 352.388C101.545 352.628 97.8851 353.728 94.2351 353.228C90.2351 352.688 86.6551 350.298 82.6451 349.988C78.2151 349.648 73.5051 351.868 69.4651 349.988C67.6051 349.118 66.1051 347.448 64.0851 347.058C62.0651 346.668 60.2151 347.578 58.2551 347.588C53.1151 347.588 54.9751 343.688 57.6151 342.088C59.5051 340.938 62.2051 340.568 64.3251 340.088C70.9893 338.649 77.7403 337.647 84.5351 337.088C89.7151 336.608 96.6351 335.548 101.775 336.368C103.007 336.682 104.266 336.879 105.535 336.958C107.275 336.958 108.865 336.038 110.535 335.528C112.957 334.905 115.455 334.629 117.955 334.708C119.205 334.708 120.475 334.558 121.725 334.588C122.975 334.618 124.005 335.428 125.155 335.088C125.506 334.958 125.841 334.79 126.155 334.588C126.566 334.36 126.998 334.173 127.445 334.028C128.645 333.628 129.915 334.248 131.175 334.208C132.793 334.137 134.414 334.278 135.995 334.628C137.335 334.948 138.615 334.838 139.995 335.108C140.345 335.178 140.685 335.298 140.995 335.388C143.255 335.922 145.601 335.983 147.885 335.568C149.615 335.198 151.235 334.438 152.935 333.938C159.155 332.138 166.935 333.568 173.355 333.608C180.688 333.648 188.022 333.754 195.355 333.928C215.605 334.418 235.955 335.258 256.075 337.738C258.885 338.108 279.835 339.398 279.835 344.398Z" fill="#E5C595"/>
<path d="M323.535 352.458C325.275 352.398 343.735 350.148 331.155 347.738C325.955 347.578 311.705 345.798 307.225 343.788C303.105 341.928 299.835 339.098 295.665 337.298C291.495 335.498 285.665 335.038 282.345 337.718C281.646 338.434 280.856 339.056 279.995 339.568C277.605 340.678 274.725 339.238 272.085 338.568C262.875 336.378 255.935 343.458 249.655 347.348C244.945 350.278 240.555 351.348 234.855 352.348C262.245 352.818 296.065 353.388 323.535 352.458Z" fill="#E5C595"/>
<path d="M293.865 343.678C294.036 343.678 294.175 343.539 294.175 343.367C294.175 343.196 294.036 343.057 293.865 343.057C293.694 343.057 293.555 343.196 293.555 343.367C293.555 343.539 293.694 343.678 293.865 343.678Z" fill="#421C02"/>
<path d="M302.745 347.737C302.916 347.737 303.055 347.599 303.055 347.427C303.055 347.256 302.916 347.117 302.745 347.117C302.574 347.117 302.435 347.256 302.435 347.427C302.435 347.599 302.574 347.737 302.745 347.737Z" fill="#421C02"/>
<path d="M269.395 350.948C269.566 350.948 269.705 350.809 269.705 350.638C269.705 350.466 269.566 350.328 269.395 350.328C269.224 350.328 269.085 350.466 269.085 350.638C269.085 350.809 269.224 350.948 269.395 350.948Z" fill="#421C02"/>
<path d="M285.615 341.507C285.847 341.507 286.035 341.319 286.035 341.087C286.035 340.856 285.847 340.667 285.615 340.667C285.383 340.667 285.195 340.856 285.195 341.087C285.195 341.319 285.383 341.507 285.615 341.507Z" fill="#421C02"/>
<path d="M263.345 342.507C263.516 342.507 263.655 342.369 263.655 342.197C263.655 342.026 263.516 341.887 263.345 341.887C263.174 341.887 263.035 342.026 263.035 342.197C263.035 342.369 263.174 342.507 263.345 342.507Z" fill="#421C02"/>
<path d="M138.605 348.028C136.275 348.498 134.515 349.218 135.325 350.338C135.679 350.714 136.16 350.945 136.675 350.988C140.545 351.778 144.675 351.758 148.675 351.988C149.745 351.988 151.615 351.658 152.605 351.988C154.605 352.578 155.605 354.548 157.735 355.078C161.165 355.898 164.735 355.358 168.245 355.488C171.445 355.598 174.635 356.138 177.845 356.038C180.735 355.948 183.265 354.658 186.025 354.038C193.225 352.488 201.535 353.718 208.875 353.828C212.745 353.888 216.625 353.828 220.485 353.578C222.595 353.408 229.745 353.378 231.155 351.828C238.335 343.948 196.635 346.288 191.305 345.828C180.851 344.976 170.345 344.999 159.895 345.898C155.275 346.278 150.665 346.778 146.045 347.248C143.553 347.369 141.069 347.63 138.605 348.028Z" fill="#CCAD83"/>
<path d="M214.145 337.858C215.895 337.798 260.355 340.408 221.765 333.148C216.575 332.988 202.315 331.208 197.845 329.148C193.725 327.298 190.445 324.458 186.285 322.668C182.125 320.878 176.285 320.398 172.955 323.088C172.257 323.806 171.467 324.428 170.605 324.938C168.215 326.038 165.345 324.598 162.705 323.938C153.485 321.748 146.545 328.818 140.275 332.718C135.565 335.648 131.175 336.718 125.475 337.718C152.865 338.228 186.685 338.798 214.145 337.858Z" fill="#E5C595"/>
<path d="M197.805 94.1175C197.831 93.168 198.184 92.2565 198.805 91.5375C199.225 91.1175 199.805 90.8775 200.215 90.4675C200.975 89.7375 201.215 88.5775 201.945 87.8375C203.045 86.7675 204.805 86.9675 206.345 86.9675C207.885 86.9675 209.525 86.6475 211.115 86.6675C213.795 86.6675 216.625 89.2075 219.115 90.2175C221.115 91.0575 224.695 92.5175 225.625 94.5675C226.185 95.7975 225.965 97.2475 226.355 98.5675C226.555 99.2475 226.925 99.8675 227.175 100.568C228.175 103.288 227.005 108.348 225.575 110.838C224.035 113.538 221.335 116.338 218.255 117.168C214.575 118.168 210.755 116.548 207.255 114.988C204.005 113.518 197.745 112.308 197.125 108.238C196.745 106.232 196.537 104.198 196.505 102.158C196.505 100.218 197.305 98.3175 197.615 96.4175C197.705 95.6975 197.715 94.8975 197.805 94.1175Z" fill="#193368"/>
<path d="M211.285 226.648C212.205 225.178 213.685 217.648 214.235 214.108C214.785 210.568 215.525 197.318 217.555 192.518C219.585 187.718 219.775 184.028 219.955 178.678C220.33 173.351 220.33 168.004 219.955 162.678C219.955 162.678 215.215 158.128 214.485 153.678C213.755 149.228 207.815 129.678 210.485 129.148C213.915 130.758 217.295 132.498 220.615 134.328C224.835 136.668 229.815 138.938 232.265 143.328C234.995 148.238 235.375 155.578 234.365 160.978C232.895 168.908 232.895 169.978 232.705 173.528C232.515 177.078 229.395 187.528 229.395 191.238C229.395 194.948 223.295 218.728 221.635 221.678C219.908 225.157 218.547 228.807 217.575 232.568" fill="#E29866"/>
<path d="M167.445 200.288C166.348 205.462 165.805 210.738 165.825 216.027C165.643 220.175 165.945 224.33 166.725 228.408C168.175 235.147 172.545 240.707 175.155 246.967C179.265 256.807 184.395 265.107 190.085 273.967C194.255 280.507 196.325 289.658 190.475 295.138C184.348 300.83 180.249 308.37 178.805 316.608C177.575 323.748 168.985 336.787 168.235 338.997C167.485 341.208 160.345 349.898 164.345 351.628C168.345 353.357 170.985 353.837 175.665 355.807C180.345 357.777 194.115 357.287 195.095 355.807C196.075 354.327 196.215 352.607 192.205 351.378C188.195 350.148 182.305 346.708 181.565 344.247C180.825 341.787 182.305 336.868 184.275 334.158C186.245 331.447 195.095 314.728 205.675 303.658C216.255 292.588 216.985 292.577 216.125 284.217C215.265 275.857 209.965 251.218 204.005 240.918C198.045 230.618 197.315 233.788 194.855 225.918C192.855 219.408 185.435 213.677 180.655 209.217C176.655 205.487 172.375 201.998 168.315 198.388C168.265 198.398 167.445 200.288 167.445 200.288Z" fill="#F4A067"/>
<path d="M228.255 245.658C228.255 245.658 231.025 257.228 231.945 262.048C232.957 267.245 233.698 272.493 234.165 277.768C234.345 281.268 235.545 284.038 234.855 287.538C234.165 291.038 232.855 293.078 233.055 296.768C233.255 300.458 226.785 319.088 223.275 323.338C219.765 327.588 217.925 333.848 218.475 335.508C219.025 337.168 234.685 346.028 235.065 348.058C235.445 350.088 232.685 350.638 229.185 350.638C225.685 350.638 218.665 346.397 214.785 346.397C210.905 346.397 207.595 343.448 208.145 340.498C208.914 336.346 209.461 332.157 209.785 327.948C210.545 320.198 210.725 305.948 215.155 299.168C219.585 292.388 218.665 290.488 218.475 287.908C218.285 285.328 211.345 261.158 208.085 256.358C204.825 251.558 224.565 237.358 228.255 245.658Z" fill="#E29866"/>
<path d="M216.965 117.608C215.832 120.545 215.086 123.618 214.745 126.748C214.615 129.188 215.245 129.298 216.655 131.058C218.325 133.138 219.325 135.608 220.605 137.918C222.325 141.038 224.605 143.228 225.425 146.918C226.751 153.119 226.179 159.575 223.785 165.448C222.315 169.138 218.785 171.538 218.995 173.568C219.205 175.598 218.255 186.108 216.225 189.618C214.195 193.128 214.975 197.178 214.675 200.498C214.293 203.87 214.293 207.275 214.675 210.648C215.115 216.368 214.015 224.318 212.355 227.718C212.299 228.969 211.806 230.162 210.962 231.088C210.118 232.015 208.976 232.616 207.735 232.788C203.125 233.718 197.035 236.478 192.795 229.098C188.555 221.718 179.325 220.988 173.235 212.498C167.145 204.008 166.595 202.168 168.235 198.498C169.875 194.828 169.565 192.408 175.655 178.938C181.745 165.468 182.995 160.858 183.175 151.078C183.355 141.298 182.075 131.338 187.605 128.568C193.135 125.798 196.275 126.348 201.075 119.898C205.875 113.448 217.705 115.208 216.965 117.608Z" fill="#F4A067"/>
<path opacity="0.38" d="M211.945 262.048C226.001 262.048 237.395 250.653 237.395 236.598C237.395 222.542 226.001 211.148 211.945 211.148C197.889 211.148 186.495 222.542 186.495 236.598C186.495 250.653 197.889 262.048 211.945 262.048Z" fill="#844921"/>
<path d="M213.885 262.048C227.941 262.048 239.335 250.653 239.335 236.598C239.335 222.542 227.941 211.148 213.885 211.148C199.829 211.148 188.435 222.542 188.435 236.598C188.435 250.653 199.829 262.048 213.885 262.048Z" fill="#E10A0A"/>
<mask id="mask0_380_447" style="mask-type:luminance" maskUnits="userSpaceOnUse" x="188" y="211" width="52" height="52">
<path d="M213.885 262.048C227.941 262.048 239.335 250.653 239.335 236.598C239.335 222.542 227.941 211.148 213.885 211.148C199.829 211.148 188.435 222.542 188.435 236.598C188.435 250.653 199.829 262.048 213.885 262.048Z" fill="white"/>
</mask>
<g mask="url(#mask0_380_447)">
<path d="M220.955 224.288C220.955 224.288 195.285 222.008 184.905 238.488C184.905 238.488 184.115 246.737 187.735 251.647C191.355 256.557 198.265 261.328 198.265 261.328C198.265 261.328 221.105 242.858 223.935 226.568" fill="white"/>
<path d="M204.345 212.198C204.345 212.198 214.655 211.018 222.585 221.498L225.955 222.118C225.955 222.118 227.955 217.458 227.035 214.798C227.075 214.798 216.205 207.998 204.345 212.198Z" fill="white"/>
<path d="M226.675 229.168C226.675 229.168 238.675 245.028 228.785 260.558C233.125 257.053 236.452 252.454 238.42 247.235C240.389 242.016 240.929 236.365 239.985 230.868C239.985 230.868 237.385 225.338 227.085 224.978L226.675 229.168Z" fill="white"/>
<path d="M227.573 228.677C229.164 227.378 229.098 224.663 227.425 222.614C225.752 220.565 223.105 219.957 221.514 221.256C219.922 222.555 219.988 225.27 221.662 227.319C223.335 229.368 225.981 229.976 227.573 228.677Z" fill="#B90101"/>
</g>
<path d="M191.955 225.928C190.955 223.168 188.045 216.718 187.615 212.848C187.085 208.178 182.395 196.368 180.425 191.318C178.455 186.268 177.425 183.068 178.215 179.938C178.909 176.552 179.344 173.119 179.515 169.668C179.785 166.248 181.825 161.408 181.335 158.018C181.175 156.908 182.105 150.148 178.115 155.118C174.315 159.868 171.115 160.918 171.265 163.748C171.795 175.548 170.745 184.378 173.495 195.048C176.345 206.288 181.345 216.208 187.815 225.928C188.495 226.928 189.085 227.408 191.025 226.858C191.299 226.514 191.611 226.202 191.955 225.928Z" fill="#D3844F"/>
<path opacity="0.35" d="M216.875 170.808C215.405 169.888 214.235 169.088 207.725 167.608C201.215 166.128 190.225 167.608 190.215 167.608C190.215 167.068 190.305 166.518 190.345 165.978C190.605 162.558 192.655 157.718 192.155 154.328C191.995 153.218 189.725 147.018 188.445 148.418C185.364 151.689 183.174 155.697 182.085 160.058C179.435 170.858 180.345 181.788 183.085 192.458C185.975 203.688 190.755 214.628 198.085 223.458C199.835 225.689 201.786 227.755 203.915 229.628C205.415 230.878 208.735 237.428 210.385 238.418C210.215 239.318 214.235 249.948 213.385 235.878C211.225 235.488 208.275 231.628 206.915 230.108C205.591 228.784 204.496 227.25 203.675 225.568C203.115 224.218 202.855 222.748 202.195 221.438C201.535 220.128 200.265 219.048 199.425 217.758C197.675 215.098 195.805 212.238 195.205 209.058C194.365 204.588 194.205 200.058 193.275 195.568C192.635 192.448 191.575 189.218 190.625 186.108C189.675 182.998 188.245 179.548 189.005 176.288C189.57 173.705 189.945 171.085 190.125 168.448C190.792 168.476 191.461 168.456 192.125 168.388C196.755 167.998 211.545 169.808 213.495 171.098C215.445 172.388 218.345 171.728 216.875 170.808Z" fill="#D3844F"/>
<path d="M196.575 234.018C193.445 227.918 191.965 229.018 186.805 222.018C181.645 215.018 176.805 201.727 174.805 198.407C172.805 195.087 173.885 193.978 172.035 187.888C170.185 181.798 169.825 172.757 168.715 164.458C168.058 158.447 168.092 152.381 168.815 146.377C169.745 137.677 183.225 125.717 192.695 126.377C197.875 126.737 187.695 134.588 188.825 138.278C188.825 138.278 192.395 145.228 190.925 149.898C189.455 154.568 187.475 157.767 187.925 162.687C188.375 167.607 187.195 178.188 186.455 181.138C185.715 184.088 186.695 187.137 188.665 191.877C190.635 196.617 194.075 211.647 196.535 215.337C197.965 217.574 199.277 219.884 200.465 222.257C201.095 223.448 201.715 224.647 202.335 225.847C202.845 226.847 203.335 228.548 204.335 229.078C205.917 229.737 207.445 230.519 208.905 231.418C210.545 232.588 211.745 234.308 213.195 235.698C214.645 237.088 216.085 238.628 215.765 240.698C215.215 244.138 216.555 243.158 215.765 246.358C214.995 249.121 213.434 251.599 211.275 253.488C209.805 254.718 206.355 252.007 206.355 248.817C206.355 245.627 206.355 242.167 203.895 240.937C201.435 239.707 196.575 234.018 196.575 234.018Z" fill="#F4A067"/>
<path d="M216.075 112.748C217.705 114.748 217.145 118.948 214.725 120.868C212.305 122.788 202.725 125.868 201.095 123.778C199.465 121.688 200.095 118.517 202.535 116.597C204.975 114.677 214.455 110.708 216.075 112.748Z" fill="#D3844F"/>
<path d="M196.885 105.498C196.885 111.398 195.885 120.258 200.825 121.978C205.765 123.698 213.825 121.488 215.825 119.028C217.825 116.568 217.305 116.028 219.275 115.338C221.245 114.648 226.665 108.908 222.735 108.268C221.635 108.088 221.735 109.498 221.105 110.008C221.017 110.086 220.915 110.146 220.803 110.183C220.691 110.22 220.573 110.234 220.456 110.223C220.339 110.213 220.225 110.179 220.122 110.123C220.018 110.067 219.928 109.99 219.855 109.898C219.785 109.75 219.744 109.59 219.735 109.428C219.379 107.648 218.915 105.891 218.345 104.168C217.775 101.868 218.755 99.2275 217.345 97.1675C216.075 95.3375 213.515 94.6175 211.705 93.4875C208.865 91.7375 206.295 93.9075 203.355 94.0175C200.055 94.1575 199.205 95.2375 198.105 98.3575C197.303 100.653 196.89 103.066 196.885 105.498Z" fill="#F4A067"/>
<path d="M214.675 237.218C214.675 237.218 214.795 242.218 214.445 243.218C214.884 243.814 215.087 244.551 215.015 245.288C214.925 246.368 215.525 250.158 216.585 250.158C216.73 250.135 216.864 250.07 216.971 249.97C217.078 249.87 217.153 249.74 217.185 249.598C217.305 248.673 217.255 247.734 217.035 246.828C216.955 245.928 216.875 245.018 216.785 244.118C216.785 244.118 215.815 237.628 214.675 237.218Z" fill="#F4A067"/>
<path d="M169.195 328.897C169.427 328.897 169.615 328.709 169.615 328.478C169.615 328.246 169.427 328.057 169.195 328.057C168.963 328.057 168.775 328.246 168.775 328.478C168.775 328.709 168.963 328.897 169.195 328.897Z" fill="#421C02"/>
<path d="M153.745 331.108C153.916 331.108 154.055 330.969 154.055 330.798C154.055 330.626 153.916 330.488 153.745 330.488C153.574 330.488 153.435 330.626 153.435 330.798C153.435 330.969 153.574 331.108 153.745 331.108Z" fill="#421C02"/>
</svg>
