<svg id="Layer_1" data-name="Layer 1" xmlns="http://www.w3.org/2000/svg" xmlns:xlink="http://www.w3.org/1999/xlink" viewBox="0 0 350 500"><defs><style>.cls-1{fill:none;}.cls-2{fill:#ccad83;}.cls-3{fill:#e5c595;}.cls-4{fill:#421c02;}.cls-5{fill:#193368;}.cls-6{fill:#e29866;}.cls-7{fill:#f4a067;}.cls-8{fill:#844921;opacity:0.38;}.cls-9{fill:#e10a0a;}.cls-10{clip-path:url(#clip-path);}.cls-11{fill:#fff;}.cls-12{fill:#b90101;}.cls-13,.cls-14{fill:#d3844f;}.cls-14{opacity:0.35;}</style><clipPath id="clip-path"><circle class="cls-1" cx="190.54" cy="286.31" r="25.45"/></clipPath></defs><title>Artboard 3 copy</title><path class="cls-2" d="M234.17,389.66a8,8,0,0,0,.87.08c1,0,2-.14,2.93-.07,1.61.11,3.12.91,4.74.78.3,0,.64-.12.72-.37s-.17-.45-.43-.51a1.86,1.86,0,0,0-.81.05L241,388.55a2.75,2.75,0,0,0-1.11-.71,3.92,3.92,0,0,0-1.85.18,2.09,2.09,0,0,1-1.78-.2c-.16-.13-.26-.31-.44-.44a2,2,0,0,0-1.48-.05,8.38,8.38,0,0,1-2.64.21c-1.29-.14-2.09-.91-3.1-1.48a23.36,23.36,0,0,0-3.22-1.56,5.23,5.23,0,0,0-4.31.13,3.74,3.74,0,0,1-.76.51,4.78,4.78,0,0,1-2.56-.26c-3-.59-7.23-1.86-9.26-.79-1.53.81-7.05-.27-8.89,0,5.23.05,16.58,4.71,21.81,4.7,2.41,0,4.81-.14,7.19-.21C230.54,388.54,232.29,389.38,234.17,389.66Z"/><path class="cls-2" d="M125.19,388.55c1,0,27.51,1.52,4.54-2.81-3.09-.1-11.58-1.15-14.24-2.35-2.46-1.11-4.41-2.8-6.89-3.87s-5.95-1.34-7.93.26a7.23,7.23,0,0,1-1.4,1.1c-1.42.65-3.13-.2-4.71-.58-5.48-1.3-9.61,2.91-13.35,5.23a23,23,0,0,1-8.81,3C88.71,388.76,108.84,389.1,125.19,388.55Z"/><path class="cls-3" d="M256.49,394.11c0,1.64-2.81,2.36-3.93,2.84-7,2.94-15.66,3.34-23.05,4.17-13,1.46-15.69,5.13-28.73,5.7-15.39.67-41.05-2.15-56.35-2.64-8-.25-16.12,1.78-24.17,1.77a136.2,136.2,0,0,1-24.43-2.22c-4.61-.85-9.26-1.94-13.94-1.63-3.69.24-7.35,1.34-11,.84-4-.54-7.58-2.93-11.59-3.24-4.43-.34-9.14,1.88-13.18,0-1.86-.87-3.36-2.54-5.38-2.93s-3.87.52-5.83.53c-5.14,0-3.28-3.9-.64-5.5,1.89-1.15,4.59-1.52,6.71-2a156.59,156.59,0,0,1,20.21-3c5.18-.48,12.1-1.54,17.24-.72a20.28,20.28,0,0,0,3.76.59c1.74,0,3.33-.92,5-1.43a26.46,26.46,0,0,1,7.42-.82c1.25,0,2.52-.15,3.77-.12s2.28.84,3.43.5a5.11,5.11,0,0,0,1-.5,7.4,7.4,0,0,1,1.29-.56c1.2-.4,2.47.22,3.73.18a18.57,18.57,0,0,1,4.82.42c1.34.32,2.62.21,4,.48.35.07.69.19,1,.28a16.84,16.84,0,0,0,6.89.18c1.73-.37,3.35-1.13,5.05-1.63,6.22-1.8,14-.37,20.42-.33q11,.06,22,.32c20.25.49,40.6,1.33,60.72,3.81C235.54,387.82,256.49,389.11,256.49,394.11Z"/><path class="cls-3" d="M300.19,402.17c1.74-.06,20.2-2.31,7.62-4.72-5.2-.16-19.45-1.94-23.93-3.95-4.12-1.86-7.39-4.69-11.56-6.49s-10-2.26-13.32.42a11.49,11.49,0,0,1-2.35,1.85c-2.39,1.11-5.27-.33-7.91-1-9.21-2.19-16.15,4.89-22.43,8.78-4.71,2.93-9.1,4-14.8,5C238.9,402.53,272.72,403.1,300.19,402.17Z"/><circle class="cls-4" cx="270.52" cy="393.08" r="0.31"/><circle class="cls-4" cx="279.4" cy="397.14" r="0.31"/><circle class="cls-4" cx="246.05" cy="400.35" r="0.31"/><circle class="cls-4" cx="262.27" cy="390.8" r="0.42"/><circle class="cls-4" cx="240" cy="391.91" r="0.31"/><path class="cls-2" d="M115.26,397.74c-2.33.47-4.09,1.19-3.28,2.31a2.09,2.09,0,0,0,1.35.65c3.87.79,8,.77,12,1,1.07,0,2.94-.33,3.93,0,2,.59,3,2.56,5.13,3.09,3.43.82,7,.28,10.51.41,3.2.11,6.39.65,9.6.55,2.89-.09,5.42-1.38,8.18-2,7.2-1.55,15.51-.32,22.85-.21,3.87.06,7.75,0,11.61-.25,2.11-.17,9.26-.2,10.67-1.75,7.18-7.88-34.52-5.54-39.85-6a188.25,188.25,0,0,0-31.41.07c-4.62.38-9.23.88-13.85,1.35A67.26,67.26,0,0,0,115.26,397.74Z"/><path class="cls-3" d="M190.8,387.57c1.75-.06,46.21,2.55,7.62-4.71-5.19-.16-19.45-1.94-23.92-4-4.12-1.85-7.4-4.69-11.56-6.48s-10-2.27-13.33.42a11.29,11.29,0,0,1-2.35,1.85c-2.39,1.1-5.26-.34-7.9-1-9.22-2.19-16.16,4.88-22.43,8.78-4.71,2.93-9.1,4-14.8,5C129.52,387.94,163.34,388.51,190.8,387.57Z"/><path class="cls-5" d="M174.46,143.83a4.12,4.12,0,0,1,1-2.58c.42-.42,1-.66,1.41-1.07.76-.73,1-1.89,1.73-2.63,1.1-1.07,2.86-.87,4.4-.87s3.18-.32,4.77-.3c2.68,0,5.51,2.54,8,3.55,2,.84,5.58,2.3,6.51,4.35.56,1.23.34,2.68.73,4,.2.68.57,1.3.82,2,1,2.72-.17,7.78-1.6,10.27-1.54,2.7-4.24,5.5-7.32,6.33-3.68,1-7.5-.62-11-2.18-3.25-1.47-9.51-2.68-10.13-6.75a35.62,35.62,0,0,1-.62-6.08c0-1.94.8-3.84,1.11-5.74C174.36,145.41,174.37,144.61,174.46,143.83Z"/><path class="cls-6" d="M187.94,276.36c.92-1.47,2.4-9,2.95-12.54s1.29-16.79,3.32-21.59,2.22-8.49,2.4-13.84a113.93,113.93,0,0,0,0-16s-4.74-4.55-5.47-9-6.67-24-4-24.53c3.43,1.61,6.81,3.35,10.13,5.18,4.22,2.34,9.2,4.61,11.65,9,2.73,4.91,3.11,12.25,2.1,17.65-1.47,7.93-1.47,9-1.66,12.55s-3.31,14-3.31,17.71-6.1,27.49-7.76,30.44a56,56,0,0,0-4.06,10.89"/><path class="cls-7" d="M144.1,250a74.49,74.49,0,0,0-1.62,15.74,53.42,53.42,0,0,0,.9,12.38c1.45,6.74,5.82,12.3,8.43,18.56,4.11,9.84,9.24,18.14,14.93,27,4.17,6.54,6.24,15.69.39,21.17a38.34,38.34,0,0,0-11.67,21.47c-1.23,7.14-9.82,20.18-10.57,22.39S137,399.61,141,401.34s6.64,2.21,11.32,4.18,18.45,1.48,19.43,0,1.12-3.2-2.89-4.43-9.9-4.67-10.64-7.13.74-7.38,2.71-10.09,10.82-19.43,21.4-30.5,11.31-11.08,10.45-19.44-6.16-33-12.12-43.3-6.69-7.13-9.15-15c-2-6.51-9.42-12.24-14.2-16.7-4-3.73-8.28-7.22-12.34-10.83C144.92,248.11,144.1,250,144.1,250Z"/><path class="cls-6" d="M204.91,295.37s2.77,11.57,3.69,16.39a152.69,152.69,0,0,1,2.22,15.72c.18,3.5,1.38,6.27.69,9.77s-2,5.54-1.8,9.23-6.27,22.32-9.78,26.57-5.35,10.51-4.8,12.17,16.21,10.52,16.59,12.55-2.38,2.58-5.88,2.58-10.52-4.24-14.4-4.24-7.19-2.95-6.64-5.9a119.19,119.19,0,0,0,1.64-12.55c.76-7.75.94-22,5.37-28.78s3.51-8.68,3.32-11.26-7.13-26.75-10.39-31.55S201.22,287.07,204.91,295.37Z"/><path class="cls-7" d="M193.62,167.32a36.33,36.33,0,0,0-2.22,9.14c-.13,2.44.5,2.55,1.91,4.31,1.67,2.08,2.67,4.55,3.95,6.86,1.72,3.12,4,5.31,4.82,9a31.59,31.59,0,0,1-1.64,18.53c-1.47,3.69-5,6.09-4.79,8.12s-.74,12.54-2.77,16.05-1.25,7.56-1.55,10.88a45.11,45.11,0,0,0,0,10.15c.44,5.72-.66,13.67-2.32,17.07a5.36,5.36,0,0,1-4.62,5.07c-4.61.93-10.7,3.69-14.94-3.69s-13.47-8.11-19.56-16.6-6.64-10.33-5-14,1.33-6.09,7.42-19.56,7.34-18.08,7.52-27.86-1.1-19.74,4.43-22.51,8.67-2.22,13.47-8.67S194.36,164.92,193.62,167.32Z"/><circle class="cls-8" cx="188.6" cy="286.31" r="25.45"/><circle class="cls-9" cx="190.54" cy="286.31" r="25.45"/><g class="cls-10"><path class="cls-11" d="M197.61,274s-25.67-2.28-36.05,14.2c0,0-.79,8.25,2.83,13.16s10.53,9.68,10.53,9.68,22.84-18.47,25.67-34.76"/><path class="cls-11" d="M181,261.91s10.31-1.18,18.24,9.3l3.37.62s2-4.66,1.08-7.32C203.73,264.51,192.86,257.71,181,261.91Z"/><path class="cls-11" d="M203.33,278.88s12,15.86,2.11,31.39a31.34,31.34,0,0,0,11.2-29.69s-2.6-5.53-12.9-5.89Z"/><ellipse class="cls-12" cx="201.19" cy="274.69" rx="3.72" ry="4.79" transform="translate(-128.37 189.14) rotate(-39.23)"/></g><path class="cls-13" d="M168.61,275.64c-1-2.76-3.91-9.21-4.34-13.08-.53-4.67-5.22-16.48-7.19-21.53s-3-8.25-2.21-11.38a67.86,67.86,0,0,0,1.3-10.27c.27-3.42,2.31-8.26,1.82-11.65-.16-1.11.77-7.87-3.22-2.9-3.8,4.75-7,5.8-6.85,8.63.53,11.8-.52,20.63,2.23,31.3C153,256,158,265.92,164.47,275.64c.68,1,1.27,1.48,3.21.93A5.84,5.84,0,0,1,168.61,275.64Z"/><path class="cls-14" d="M193.53,220.52c-1.47-.92-2.64-1.72-9.15-3.2s-17.5,0-17.51,0c0-.54.09-1.09.13-1.63.26-3.42,2.31-8.26,1.81-11.65-.16-1.11-2.43-7.31-3.71-5.91a26.26,26.26,0,0,0-6.36,11.64c-2.65,10.8-1.74,21.73,1,32.4,2.89,11.23,7.67,22.17,15,31a46.09,46.09,0,0,0,5.83,6.17c1.5,1.25,4.82,7.8,6.47,8.79-.17.9,3.85,11.53,3-2.54-2.16-.39-5.11-4.25-6.47-5.77a16.88,16.88,0,0,1-3.24-4.54c-.56-1.35-.82-2.82-1.48-4.13s-1.93-2.39-2.77-3.68c-1.75-2.66-3.62-5.52-4.22-8.7-.84-4.47-1-9-1.93-13.49-.64-3.12-1.7-6.35-2.65-9.46s-2.38-6.56-1.62-9.82a53.83,53.83,0,0,0,1.12-7.84,13.73,13.73,0,0,0,2-.06c4.63-.39,19.42,1.42,21.37,2.71S195,221.44,193.53,220.52Z"/><path class="cls-7" d="M173.23,283.73c-3.13-6.1-4.61-5-9.77-12s-10-20.29-12-23.61-.92-4.43-2.77-10.52-2.21-15.13-3.32-23.43a79.22,79.22,0,0,1,.1-18.08c.93-8.7,14.41-20.66,23.88-20,5.18.36-5,8.21-3.87,11.9,0,0,3.57,6.95,2.1,11.62s-3.45,7.87-3,12.79-.73,15.5-1.47,18.45.24,6,2.21,10.74,5.41,19.77,7.87,23.46a76,76,0,0,1,3.93,6.92c.63,1.19,1.25,2.39,1.87,3.59.51,1,1,2.7,2,3.23a32.85,32.85,0,0,1,4.57,2.34c1.64,1.17,2.84,2.89,4.29,4.28s2.89,2.93,2.57,5c-.55,3.44.79,2.46,0,5.66a14.73,14.73,0,0,1-4.49,7.13c-1.47,1.23-4.92-1.48-4.92-4.67s0-6.65-2.46-7.88S173.23,283.73,173.23,283.73Z"/><path class="cls-13" d="M192.73,162.46c1.63,2,1.07,6.2-1.35,8.12s-12,5-13.63,2.91-1-5.26,1.44-7.18S191.11,160.42,192.73,162.46Z"/><path class="cls-7" d="M173.54,155.21c0,5.9-1,14.76,3.94,16.48s13-.49,15-2.95,1.48-3,3.45-3.69,7.39-6.43,3.46-7.07c-1.1-.18-1,1.23-1.63,1.74a.86.86,0,0,1-1.25-.11,1.26,1.26,0,0,1-.12-.47,44.7,44.7,0,0,0-1.39-5.26c-.57-2.3.41-4.94-1-7-1.27-1.83-3.83-2.55-5.64-3.68-2.84-1.75-5.41.42-8.35.53-3.3.14-4.15,1.22-5.25,4.34A21.78,21.78,0,0,0,173.54,155.21Z"/><path class="cls-7" d="M191.33,286.93s.12,5-.23,6a3,3,0,0,1,.57,2.07c-.09,1.08.51,4.87,1.57,4.87a.73.73,0,0,0,.6-.56,7.6,7.6,0,0,0-.15-2.77c-.08-.9-.16-1.81-.25-2.71C193.44,293.83,192.47,287.34,191.33,286.93Z"/><circle class="cls-4" cx="145.85" cy="378.19" r="0.42"/><circle class="cls-4" cx="130.4" cy="380.51" r="0.31"/></svg>