<svg width="40" height="41" viewBox="0 0 40 41" fill="none" xmlns="http://www.w3.org/2000/svg">
<path fill-rule="evenodd" clip-rule="evenodd" d="M26.8237 17.7875C26.8237 19.6165 26.289 21.3179 25.3775 22.752L25.0737 23.1834L31.6666 29.7823L29.6188 31.8665L23.0199 25.2676L22.6006 25.5592C21.1544 26.495 19.4287 27.0419 17.5754 27.0419C12.4713 27.0419 8.33325 22.8978 8.33325 17.7875C8.33325 12.6773 12.4713 8.5332 17.5815 8.5332C22.6857 8.5332 26.8237 12.6773 26.8237 17.7875ZM24.8975 17.7815C24.8975 15.8309 24.1379 13.9959 22.7586 12.6165C21.3793 11.2372 19.5442 10.4776 17.5937 10.4776C15.6431 10.4776 13.8081 11.2372 12.4287 12.6165C11.0494 13.9959 10.2898 15.8309 10.2898 17.7815C10.2898 19.732 11.0494 21.5671 12.4287 22.9464C13.8081 24.3257 15.6431 25.0853 17.5937 25.0853C19.5442 25.0853 21.3793 24.3257 22.7586 22.9464C24.1379 21.5671 24.8975 19.732 24.8975 17.7815Z" fill="black"/>
<mask id="mask0_452_3312" style="mask-type:luminance" maskUnits="userSpaceOnUse" x="8" y="8" width="24" height="24">
<path fill-rule="evenodd" clip-rule="evenodd" d="M26.8237 17.7875C26.8237 19.6165 26.289 21.3179 25.3775 22.752L25.0737 23.1834L31.6666 29.7823L29.6188 31.8665L23.0199 25.2676L22.6006 25.5592C21.1544 26.495 19.4287 27.0419 17.5754 27.0419C12.4713 27.0419 8.33325 22.8978 8.33325 17.7875C8.33325 12.6773 12.4713 8.5332 17.5815 8.5332C22.6857 8.5332 26.8237 12.6773 26.8237 17.7875ZM24.8975 17.7815C24.8975 15.8309 24.1379 13.9959 22.7586 12.6165C21.3793 11.2372 19.5442 10.4776 17.5937 10.4776C15.6431 10.4776 13.8081 11.2372 12.4287 12.6165C11.0494 13.9959 10.2898 15.8309 10.2898 17.7815C10.2898 19.732 11.0494 21.5671 12.4287 22.9464C13.8081 24.3257 15.6431 25.0853 17.5937 25.0853C19.5442 25.0853 21.3793 24.3257 22.7586 22.9464C24.1379 21.5671 24.8975 19.732 24.8975 17.7815Z" fill="white"/>
</mask>
<g mask="url(#mask0_452_3312)">
<rect y="0.199951" width="40" height="40" fill="black"/>
</g>
</svg>
