<svg width="24" height="24" viewBox="0 0 24 24" fill="none" xmlns="http://www.w3.org/2000/svg">
<path fill-rule="evenodd" clip-rule="evenodd" d="M14.8077 11.5466H14.9372C15.2533 11.5466 15.5 11.8065 15.5 12.1465V17.4014C15.5 17.7414 15.2533 18 14.9372 18H8.55708C8.24104 18 8 17.7414 8 17.4014V12.1465C8 11.8065 8.24104 11.5466 8.55708 11.5466H8.80769V9.44414C8.80769 9.44331 8.80769 9.4422 8.80768 9.4408C8.80737 9.34328 8.80256 7.86894 9.71854 6.87493C10.2537 6.29438 10.955 6 11.8348 6L11.842 6.00025C11.8703 6.00112 14.6923 6.13565 14.8077 9.33716V9.36198V11.5466ZM10.4012 7.65431C9.78085 8.32745 9.73077 9.42825 9.73077 9.43917V11.5466H13.7692V9.37489C13.7692 7.2429 11.9361 7.11396 11.7902 7.10701C11.1912 7.10887 10.7388 7.28795 10.4012 7.65431Z" fill="#6E6E6E"/>
</svg>
