<svg width="26" height="26" viewBox="0 0 26 26" fill="none" xmlns="http://www.w3.org/2000/svg">
<g id="QR ico">
<g id="Group 2">
<path id="Path" d="M4.46655 6.79984H6.59989V4.6665H4.46655V6.79984Z" fill="black"/>
<path id="Shape" fill-rule="evenodd" clip-rule="evenodd" d="M10.8666 6.7999H13V8.93324H10.8666V11.0666H2.33328V13.1999H0.199951V0.399902H10.8666V6.7999ZM2.33374 8.9332H8.73374V2.5332H2.33374V8.9332Z" fill="black"/>
<path id="Path_2" d="M19.4001 6.79984H21.5335V4.6665H19.4001V6.79984Z" fill="black"/>
<path id="Shape_2" fill-rule="evenodd" clip-rule="evenodd" d="M13 4.66657V0.399902H25.8V11.0666H21.5333V13.1999H25.8V17.4666H23.6667V19.5999H21.5333V17.4666H19.4V11.0666H15.1333V4.66657H13ZM17.2666 8.9332H23.6666V2.5332H17.2666V8.9332Z" fill="black"/>
<path id="Path_3" d="M19.4002 19.5999H17.2669V21.7332H15.1335V23.8665H19.4002V19.5999Z" fill="black"/>
<path id="Path_4" d="M17.2664 13.2H12.9998V15.3333H15.1331V17.4666H12.9998V19.6H17.2664V13.2Z" fill="black"/>
<path id="Path_5" d="M23.6667 23.8665H25.8001V21.7332H23.6667V23.8665Z" fill="black"/>
<path id="Path_6" d="M19.4001 23.8665V25.9998H23.6668V23.8665H19.4001Z" fill="black"/>
<path id="Path_7" d="M12.9998 25.9998H15.1331V23.8665H12.9998V25.9998Z" fill="black"/>
<path id="Path_8" d="M4.46655 21.7332H6.59989V19.5999H4.46655V21.7332Z" fill="black"/>
<path id="Shape_3" fill-rule="evenodd" clip-rule="evenodd" d="M6.59995 13.2V15.3333H10.8666V26H0.199951V15.3333H4.46662V13.2H6.59995ZM2.33374 23.8666H8.73374V17.4666H2.33374V23.8666Z" fill="black"/>
</g>
</g>
</svg>
