<?xml version="1.0" encoding="utf-8"?>
<!-- Generator: Adobe Illustrator 23.1.1, SVG Export Plug-In . SVG Version: 6.00 Build 0)  -->
<svg version="1.1" id="Layer_1" xmlns="http://www.w3.org/2000/svg" xmlns:xlink="http://www.w3.org/1999/xlink" x="0px" y="0px"
	 viewBox="0 0 200 200" style="enable-background:new 0 0 200 200;" xml:space="preserve">
<style type="text/css">
	.st0{fill:#FFFFFF;}
</style>
<title>Artboard 3</title>
<path class="st0" d="M108.7,150.1c-0.9,0-1.9-0.3-2.6-0.9c-0.4-0.3-0.8-0.7-1.1-1.1l-12.2-17.1H45.7c-2.5,0-4.6-2.1-4.6-4.6V54.8
	c0-2.5,2.1-4.6,4.6-4.6h108.6c2.5,0,4.6,2.1,4.6,4.6v71.7c0,2.5-2.1,4.6-4.6,4.6h-29.6l-12.2,17.1c-0.7,1-1.8,1.7-3,1.9
	C109.2,150.1,109,150.1,108.7,150.1z M109.9,144.7L109.9,144.7C109.9,144.7,109.9,144.7,109.9,144.7z M47.1,125.1h46.4
	c1.5,0,2.9,0.7,3.7,1.9l11.5,16.1l11.5-16.1c0.9-1.2,2.2-1.9,3.7-1.9h28.9V56.2H47.1V125.1z"/>
<rect x="59.2" y="88.8" class="st0" width="81.7" height="6"/>
<rect x="59.2" y="106.9" class="st0" width="49.5" height="6"/>
</svg>
