<svg width="40" height="41" viewBox="0 0 40 41" fill="none" xmlns="http://www.w3.org/2000/svg">
<g id="Icons/40/Link">
<g id="Shape">
<path fill-rule="evenodd" clip-rule="evenodd" d="M22.3649 9.18201C23.5645 8.00068 25.138 7.40762 26.7038 7.3999L26.7037 7.4001C28.2695 7.3922 29.8319 7.97167 31.0243 9.14589C33.4089 11.4945 33.3868 15.3486 30.9877 17.7117L26.4308 22.1945C24.032 24.5577 20.1561 24.5796 17.7714 22.2308C17.5897 22.0723 17.4817 21.8454 17.4732 21.6045C17.4644 21.3633 17.556 21.1295 17.7259 20.9582C17.8961 20.7871 18.1293 20.6937 18.3706 20.7006C18.6118 20.7075 18.8394 20.8136 18.9994 20.9943C20.7095 22.6784 23.4647 22.6611 25.2028 20.9488L29.7598 16.4658C31.4981 14.7534 31.5063 12.0758 29.7963 10.3915C28.0862 8.70748 25.3314 8.7158 23.5928 10.4279L19.3086 14.6471C19.1433 14.8098 18.9202 14.9004 18.6881 14.8987C18.4562 14.8971 18.2343 14.8033 18.0715 14.6381C17.9086 14.4729 17.8181 14.2498 17.8197 14.0178C17.8215 13.7858 17.9153 13.5642 18.0806 13.4014L22.3649 9.19115V9.18201ZM13.5691 18.2027C14.7686 17.021 16.333 16.4283 17.8989 16.4203L17.8988 16.4202C19.4648 16.4125 21.0361 16.9917 22.2285 18.1662C22.3938 18.3289 22.4876 18.5506 22.4894 18.7826C22.491 19.0146 22.4005 19.2377 22.2376 19.4029C22.0748 19.5681 21.8531 19.6619 21.621 19.6635C21.3889 19.6653 21.1658 19.5748 21.0005 19.4118C19.2904 17.7278 16.5352 17.7359 14.7971 19.4483L10.2401 23.9312C8.50175 25.6436 8.49364 28.3212 10.2036 30.0054C11.9137 31.6897 14.6685 31.6814 16.407 29.9691L20.6913 25.7499C20.8564 25.5861 21.0797 25.495 21.3124 25.4962C21.5449 25.4974 21.7672 25.5914 21.9304 25.7568C22.0937 25.9224 22.1842 26.1461 22.1822 26.3785C22.18 26.6111 22.0854 26.8332 21.9193 26.9958L17.635 31.215C15.2358 33.5776 11.3603 33.5999 8.97563 31.2513C6.59098 28.9027 6.61313 25.0487 9.01218 22.6855L13.5691 18.2027Z" fill="black"/>
<path d="M26.7038 7.3999L26.9318 7.50236L27.091 7.14799L26.7025 7.14991L26.7038 7.3999ZM22.3649 9.18201L22.1895 9.00389L22.1149 9.07733V9.18201H22.3649ZM26.7037 7.4001L26.4756 7.29765L26.3164 7.65206L26.7049 7.6501L26.7037 7.4001ZM31.0243 9.14589L31.1997 8.96777L31.1997 8.96776L31.0243 9.14589ZM30.9877 17.7117L31.163 17.8899L31.1632 17.8898L30.9877 17.7117ZM26.4308 22.1945L26.2555 22.0163L26.2553 22.0164L26.4308 22.1945ZM17.7714 22.2308L17.9468 22.0527L17.9415 22.0474L17.9358 22.0425L17.7714 22.2308ZM17.4732 21.6045L17.723 21.5956L17.723 21.5954L17.4732 21.6045ZM17.7259 20.9582L17.5487 20.7819L17.5484 20.7821L17.7259 20.9582ZM18.3706 20.7006L18.3634 20.9505H18.3634L18.3706 20.7006ZM18.9994 20.9943L18.8122 21.16L18.8179 21.1664L18.824 21.1724L18.9994 20.9943ZM25.2028 20.9488L25.0275 20.7706L25.0274 20.7707L25.2028 20.9488ZM29.7598 16.4658L29.9351 16.644L29.9352 16.6439L29.7598 16.4658ZM29.7963 10.3915L29.9717 10.2134L29.9717 10.2134L29.7963 10.3915ZM23.5928 10.4279L23.4174 10.2497L23.4174 10.2497L23.5928 10.4279ZM19.3086 14.6471L19.1332 14.4689L19.1332 14.4689L19.3086 14.6471ZM18.6881 14.8987L18.6898 14.6487H18.6898L18.6881 14.8987ZM18.0715 14.6381L17.8934 14.8136L17.8934 14.8136L18.0715 14.6381ZM17.8197 14.0178L17.5697 14.0158L17.5697 14.0161L17.8197 14.0178ZM18.0806 13.4014L17.9054 13.2231L17.9052 13.2233L18.0806 13.4014ZM22.3649 9.19115L22.5401 9.36946L22.6149 9.29598V9.19115H22.3649ZM17.8989 16.4203L17.9001 16.6703L18.3068 16.6683L18.1214 16.3064L17.8989 16.4203ZM13.5691 18.2027L13.7444 18.3809L13.7446 18.3808L13.5691 18.2027ZM17.8988 16.4202L17.8975 16.1702L17.4908 16.1722L17.6763 16.5341L17.8988 16.4202ZM22.2285 18.1662L22.0531 18.3443L22.0531 18.3443L22.2285 18.1662ZM22.4894 18.7826L22.7394 18.7808L22.7394 18.7806L22.4894 18.7826ZM22.2376 19.4029L22.0596 19.2274L22.0596 19.2274L22.2376 19.4029ZM21.621 19.6635L21.6193 19.4135L21.6191 19.4135L21.621 19.6635ZM21.0005 19.4118L21.1761 19.2338L21.1759 19.2337L21.0005 19.4118ZM14.7971 19.4483L14.9724 19.6266L14.9725 19.6264L14.7971 19.4483ZM10.2401 23.9312L10.0648 23.753L10.0647 23.7531L10.2401 23.9312ZM10.2036 30.0054L10.0281 30.1835L10.0282 30.1835L10.2036 30.0054ZM16.407 29.9691L16.2316 29.791L16.2316 29.791L16.407 29.9691ZM20.6913 25.7499L20.8667 25.928L20.8674 25.9274L20.6913 25.7499ZM21.3124 25.4962L21.3111 25.7462H21.3111L21.3124 25.4962ZM21.9304 25.7568L22.1085 25.5813L22.1084 25.5812L21.9304 25.7568ZM22.1822 26.3785L22.4322 26.3809L22.4322 26.3807L22.1822 26.3785ZM21.9193 26.9958L21.7444 26.8171L21.7439 26.8176L21.9193 26.9958ZM17.635 31.215L17.8104 31.3931L17.8104 31.3931L17.635 31.215ZM8.97563 31.2513L8.80021 31.4294L8.80021 31.4294L8.97563 31.2513ZM9.01218 22.6855L8.83686 22.5073L8.83674 22.5074L9.01218 22.6855ZM26.7025 7.14991C25.0749 7.15792 23.4379 7.77446 22.1895 9.00389L22.5403 9.36014C23.691 8.22689 25.201 7.65731 26.705 7.6499L26.7025 7.14991ZM26.9317 7.50256L26.9318 7.50236L26.4757 7.29745L26.4756 7.29765L26.9317 7.50256ZM31.1997 8.96776C29.9577 7.7447 28.3307 7.14189 26.7024 7.15011L26.7049 7.6501C28.2083 7.64252 29.7061 8.19865 30.8489 9.32402L31.1997 8.96776ZM31.1632 17.8898C33.66 15.4304 33.6854 11.4159 31.1997 8.96777L30.8488 9.32401C33.1325 11.5731 33.1135 15.2669 30.8123 17.5336L31.1632 17.8898ZM26.6061 22.3727L31.163 17.8899L30.8124 17.5335L26.2555 22.0163L26.6061 22.3727ZM17.596 22.409C20.0795 24.8551 24.1117 24.8302 26.6062 22.3726L26.2553 22.0164C23.9524 24.2853 20.2327 24.3042 17.9468 22.0527L17.596 22.409ZM17.2233 21.6133C17.2343 21.9233 17.3732 22.2152 17.6071 22.4192L17.9358 22.0425C17.8062 21.9294 17.7291 21.7675 17.723 21.5956L17.2233 21.6133ZM17.5484 20.7821C17.3299 21.0024 17.2121 21.3032 17.2233 21.6135L17.723 21.5954C17.7168 21.4234 17.7821 21.2566 17.9034 21.1342L17.5484 20.7821ZM18.3777 20.4507C18.0673 20.4418 17.7673 20.562 17.5487 20.7819L17.9032 21.1344C18.0248 21.0122 18.1914 20.9456 18.3634 20.9505L18.3777 20.4507ZM19.1865 20.8285C18.9806 20.5961 18.6878 20.4596 18.3777 20.4507L18.3634 20.9505C18.5358 20.9554 18.6981 21.0312 18.8122 21.16L19.1865 20.8285ZM25.0274 20.7707C23.3842 22.3894 20.7853 22.4021 19.1748 20.8162L18.824 21.1724C20.6337 22.9546 23.5451 22.9328 25.3783 21.1269L25.0274 20.7707ZM29.5844 16.2876L25.0275 20.7706L25.3782 21.127L29.9351 16.644L29.5844 16.2876ZM29.6209 10.5696C31.2297 12.1543 31.225 14.6715 29.5843 16.2877L29.9352 16.6439C31.7713 14.8353 31.7828 11.9973 29.9717 10.2134L29.6209 10.5696ZM23.7683 10.606C25.4112 8.98811 28.0098 8.98307 29.6209 10.5697L29.9717 10.2134C28.1627 8.43189 25.2517 8.44348 23.4174 10.2497L23.7683 10.606ZM19.484 14.8252L23.7683 10.606L23.4174 10.2497L19.1332 14.4689L19.484 14.8252ZM18.6863 15.1487C18.9846 15.1508 19.2715 15.0345 19.484 14.8252L19.1332 14.4689C19.0151 14.5852 18.8557 14.6499 18.6898 14.6487L18.6863 15.1487ZM17.8934 14.8136C18.1028 15.0261 18.3881 15.1466 18.6863 15.1487L18.6898 14.6487C18.5243 14.6476 18.3658 14.5806 18.2495 14.4626L17.8934 14.8136ZM17.5697 14.0161C17.5676 14.3143 17.6841 14.6012 17.8934 14.8136L18.2496 14.4626C18.1332 14.3446 18.0686 14.1853 18.0697 14.0196L17.5697 14.0161ZM17.9052 13.2233C17.6927 13.4326 17.5721 13.7176 17.5697 14.0158L18.0697 14.0198C18.071 13.8541 18.138 13.6958 18.256 13.5795L17.9052 13.2233ZM22.1896 9.01284L17.9054 13.2231L18.2558 13.5797L22.5401 9.36946L22.1896 9.01284ZM22.1149 9.18201V9.19115H22.6149V9.18201H22.1149ZM17.8976 16.1704C16.2696 16.1786 14.6418 16.795 13.3937 18.0246L13.7446 18.3808C14.8955 17.2469 16.3965 16.6779 17.9001 16.6703L17.8976 16.1704ZM17.6763 16.5341L17.6764 16.5343L18.1214 16.3064L18.1213 16.3062L17.6763 16.5341ZM22.4039 17.988C21.1616 16.7645 19.5256 16.1622 17.8975 16.1702L17.9 16.6702C19.404 16.6628 20.9105 17.219 22.0531 18.3443L22.4039 17.988ZM22.7394 18.7806C22.737 18.4824 22.6164 18.1973 22.4039 17.988L22.0531 18.3443C22.1711 18.4605 22.2381 18.6188 22.2394 18.7845L22.7394 18.7806ZM22.4157 19.5784C22.625 19.3659 22.7415 19.0791 22.7394 18.7808L22.2394 18.7843C22.2406 18.9501 22.1759 19.1094 22.0596 19.2274L22.4157 19.5784ZM21.6228 19.9135C21.9212 19.9114 22.2063 19.7908 22.4157 19.5784L22.0596 19.2274C21.9433 19.3454 21.785 19.4123 21.6193 19.4135L21.6228 19.9135ZM20.825 19.5898C21.0375 19.7994 21.3245 19.9158 21.623 19.9135L21.6191 19.4135C21.4534 19.4148 21.2941 19.3502 21.1761 19.2338L20.825 19.5898ZM14.9725 19.6264C16.615 18.0082 19.214 18.0033 20.8251 19.5899L21.1759 19.2337C19.3669 17.4522 16.4554 17.4635 14.6216 19.2703L14.9725 19.6264ZM10.4154 24.1094L14.9724 19.6266L14.6217 19.2701L10.0648 23.753L10.4154 24.1094ZM10.379 29.8273C8.77022 28.2427 8.77487 25.7254 10.4156 24.1093L10.0647 23.7531C8.22863 25.5617 8.21706 28.3996 10.0281 30.1835L10.379 29.8273ZM16.2316 29.791C14.5887 31.4091 11.9901 31.4141 10.379 29.8273L10.0282 30.1835C11.8372 31.9653 14.7482 31.9537 16.5825 30.1472L16.2316 29.791ZM20.5159 25.5718L16.2316 29.791L16.5825 30.1472L20.8667 25.928L20.5159 25.5718ZM21.3137 25.2462C21.0147 25.2446 20.7275 25.3618 20.5152 25.5725L20.8674 25.9274C20.9852 25.8105 21.1447 25.7453 21.3111 25.7462L21.3137 25.2462ZM22.1084 25.5812C21.8986 25.3687 21.6128 25.2478 21.3137 25.2462L21.3111 25.7462C21.4769 25.7471 21.6357 25.8141 21.7525 25.9324L22.1084 25.5812ZM22.4322 26.3807C22.4348 26.0819 22.3184 25.7943 22.1085 25.5813L21.7524 25.9323C21.869 26.0506 21.9337 26.2104 21.9322 26.3763L22.4322 26.3807ZM22.0942 27.1744C22.3077 26.9654 22.4293 26.6799 22.4322 26.3809L21.9322 26.3761C21.9306 26.5424 21.863 26.701 21.7444 26.8171L22.0942 27.1744ZM17.8104 31.3931L22.0947 27.1739L21.7439 26.8176L17.4596 31.0368L17.8104 31.3931ZM8.80021 31.4294C11.2837 33.8754 15.3154 33.85 17.8104 31.3931L17.4596 31.0368C15.1561 33.3052 11.4368 33.3244 9.15106 31.0732L8.80021 31.4294ZM8.83674 22.5074C6.33988 24.9669 6.31452 28.9813 8.80021 31.4294L9.15106 31.0732C6.86745 28.824 6.88637 25.1305 9.18762 22.8636L8.83674 22.5074ZM13.3938 18.0244L8.83686 22.5073L9.1875 22.8637L13.7444 18.3809L13.3938 18.0244Z" fill="black"/>
</g>
</g>
</svg>
