<svg width="44" height="44" viewBox="0 0 44 44" fill="none" xmlns="http://www.w3.org/2000/svg">
<path fill-rule="evenodd" clip-rule="evenodd" d="M7.61563 24.8563C8.18962 27.7478 9.59052 30.2988 11.5429 32.2832C11.5923 32.3448 11.6481 32.4005 11.7091 32.4494C14.377 35.0757 18.029 36.665 21.9947 36.6666C25.8393 36.6733 29.5298 35.1654 32.2688 32.4728C32.3379 32.4189 32.4006 32.3564 32.4551 32.2865C37.3258 27.3371 38.0601 19.6412 34.1978 13.8568C30.3126 8.03809 22.8582 5.77404 16.3933 8.44918C9.92838 11.1243 6.25335 17.9936 7.61563 24.8563ZM31.5692 30.0693C31.8656 29.7172 32.1451 29.3458 32.4057 28.9557C35.5823 24.2009 35.1199 17.9318 31.3683 13.7002C31.371 13.9661 31.2754 14.2332 31.0804 14.4424L29.1488 16.3526C29.0544 16.4471 28.9441 16.5222 28.8243 16.5754C30.781 19.0332 31.2776 22.3869 30.0551 25.3368C29.7351 26.1091 29.3121 26.8176 28.8061 27.4492C28.9286 27.4926 29.045 27.5591 29.1488 27.6489L31.5692 30.0693ZM27.4343 28.8166C25.9201 30.0223 24.014 30.7169 21.9947 30.7144C19.9599 30.7139 18.0561 30.0087 16.5495 28.8029C16.5061 28.9288 16.4385 29.0484 16.3465 29.1548L13.9263 31.575C14.89 32.3874 15.9898 33.0643 17.2052 33.5677C21.6096 35.3917 26.5529 34.5298 30.0561 31.5824L27.6285 29.1548C27.5413 29.052 27.4766 28.9372 27.4343 28.8166ZM14.8406 27.6346C14.9452 27.5458 15.0623 27.4804 15.1852 27.4381C14.4509 26.5194 13.8948 25.4422 13.576 24.2517C12.846 21.5253 13.4912 18.6913 15.1686 16.5769C15.0474 16.5237 14.9359 16.448 14.8406 16.3526L12.4211 13.9331C11.093 15.5076 10.1407 17.4246 9.71631 19.5591C8.95429 23.3913 10.0326 27.2266 12.4144 30.0607L14.8406 27.6346ZM13.9352 12.421C16.1296 10.5747 18.9544 9.48127 21.9947 9.48105C25.0679 9.47681 28.0254 10.6062 30.3083 12.6378C30.0416 12.6346 29.7736 12.7302 29.5637 12.9257L27.6428 14.8466C27.5486 14.9437 27.4754 15.0555 27.4246 15.1755C24.6505 12.9659 20.7682 12.6413 17.6393 14.4471C17.265 14.6631 16.9118 14.9036 16.5807 15.1658C16.5284 15.0491 16.4547 14.9406 16.3608 14.8466L13.9352 12.421ZM15.5609 20.7234C16.1684 17.6502 18.862 15.434 21.9947 15.4297C23.7386 15.4257 25.4121 16.117 26.6448 17.3506C28.8613 19.5644 29.2055 23.0355 27.4671 25.6416C25.7287 28.2477 22.3916 29.2631 19.4963 28.0671C16.6009 26.8711 14.9533 23.7966 15.5609 20.7234Z" fill="#B7B7B7"/>
</svg>
