<svg id="Layer_2" data-name="Layer 2" xmlns="http://www.w3.org/2000/svg" viewBox="0 0 24 24"><title>ICN-WEB-email-black-v1-01-24x24</title><path d="M4.47,20A2.48,2.48,0,0,1,2,17.53V7.47A2.48,2.48,0,0,1,4.47,5H19.53A2.48,2.48,0,0,1,22,7.47V17.53A2.48,2.48,0,0,1,19.53,20Zm-.6-2.47a.6.6,0,0,0,.6.6H19.53a.6.6,0,0,0,.6-.6V10.59L14,14.84a3.7,3.7,0,0,1-2,.7,3.36,3.36,0,0,1-2-.68L3.87,10.63Zm7.28-4.15a1.47,1.47,0,0,0,.87.3,1.91,1.91,0,0,0,.92-.35l7.19-5V7.47a.6.6,0,0,0-.6-.6H4.47a.6.6,0,0,0-.6.6v.9Z"/></svg>