<svg width="40" height="40" viewBox="0 0 40 40" fill="none" xmlns="http://www.w3.org/2000/svg">
<g id="Avatar/48/Now Contact">
<rect width="40" height="40" rx="20" fill="#F5D6C1"/>
<g id="Group">
<path id="Path" d="M14.6667 16H16.0001V14.6667H14.6667V16Z" fill="#68504B"/>
<path id="Shape" fill-rule="evenodd" clip-rule="evenodd" d="M18.6667 16H20V17.3333H18.6667V18.6667H13.3333V20H12V12H18.6667V16ZM13.3333 17.3333H17.3333V13.3333H13.3333V17.3333Z" fill="#68504B"/>
<path id="Path_2" d="M24 16H25.3333V14.6667H24V16Z" fill="#68504B"/>
<path id="Shape_2" fill-rule="evenodd" clip-rule="evenodd" d="M20 14.6667V12H28V18.6667H25.3333V20H28V22.6667H26.6667V24H25.3333V22.6667H24V18.6667H21.3333V14.6667H20ZM22.6667 17.3333H26.6667V13.3333H22.6667V17.3333Z" fill="#68504B"/>
<path id="Path_3" d="M23.9999 24H22.6666V25.3333H21.3333V26.6667H23.9999V24Z" fill="#68504B"/>
<path id="Path_4" d="M22.6667 20H20V21.3333H21.3333V22.6667H20V24H22.6667V20Z" fill="#68504B"/>
<path id="Path_5" d="M26.6667 26.6666H28.0001V25.3333H26.6667V26.6666Z" fill="#68504B"/>
<path id="Path_6" d="M24 26.6667V28H26.6667V26.6667H24Z" fill="#68504B"/>
<path id="Path_7" d="M20 28H21.3333V26.6667H20V28Z" fill="#68504B"/>
<path id="Path_8" d="M14.6667 25.3333H16.0001V24H14.6667V25.3333Z" fill="#68504B"/>
<path id="Shape_3" fill-rule="evenodd" clip-rule="evenodd" d="M16 20V21.3333H18.6667V28H12V21.3333H14.6667V20H16ZM13.3333 26.6667H17.3333V22.6667H13.3333V26.6667Z" fill="#68504B"/>
</g>
</g>
</svg>
